<svg width="115" height="39" viewBox="0 0 115 39" fill="none" xmlns="http://www.w3.org/2000/svg">
<path d="M45.4065 7.67595H50.0435V26.224H54.6805V3.03894H50.0435C47.4951 3.03894 45.4065 5.12751 45.4065 7.67595ZM59.3175 26.2432H63.9545V16.9691C63.9545 14.4207 61.866 12.3321 59.3175 12.3321V26.2432ZM68.5916 12.3321V26.2432H73.2286V16.9691H77.8847V21.6062C77.8847 24.1546 79.9733 26.2432 82.5218 26.2432V16.9691C82.5218 14.4207 80.4332 12.3321 77.8847 12.3321H68.5916ZM110.344 12.3321H105.707V7.69511C105.707 5.14667 103.618 3.0581 101.07 3.0581V21.6062H91.7958V16.9691H96.4328V12.3321H91.7958C89.2473 12.3321 87.1588 14.4207 87.1588 16.9691V21.6062C87.1588 24.1546 89.2473 26.2432 91.7958 26.2432H105.707V16.9691H110.344V21.6062C110.344 24.1546 112.432 26.2432 114.981 26.2432V16.9691C115 14.4207 112.911 12.3321 110.344 12.3321ZM59.3175 7.67595H63.9545C63.9545 5.12751 61.866 3.03894 59.3175 3.03894V7.67595Z" fill="white"/>
<path d="M52.6303 30.8801V33.8693H52.2087L50.5417 31.7999V33.8693H50.0435V30.8801H50.465L52.1321 32.9687V30.8801H52.6303ZM62.0767 33.8884H60.2756V30.8993H62.0384V31.3975H60.8121V32.1448H61.9043V32.643H60.8121V33.4094H62.0767V33.8884ZM69.7029 31.3783H70.6801V33.8884H71.2166V31.3783H72.1939V30.8801H69.6837V31.3783H69.7029ZM83.5565 30.8801H84.0738L83.2115 33.8693H82.7134L81.9852 31.7041L81.2571 33.8693H80.7589L79.8583 30.8801H80.4523L81.0655 33.0262L81.7361 30.8801H82.2727L82.9625 33.0262L83.5565 30.8801ZM92.1598 31.3208C91.8724 31.6082 91.7191 31.9915 91.7191 32.413C91.7191 32.8729 91.8724 33.237 92.1598 33.5244C92.4664 33.8118 92.8305 33.9459 93.2903 33.9459C93.7502 33.9459 94.1143 33.7926 94.4209 33.5052C94.7274 33.2178 94.8807 32.8346 94.8807 32.3939C94.8807 31.934 94.7274 31.5699 94.4209 31.2825C94.1143 30.9951 93.7502 30.861 93.2903 30.861C92.8305 30.8801 92.4664 31.0334 92.1598 31.3208ZM92.5622 33.1795C92.3706 32.9879 92.2748 32.7196 92.2748 32.4322C92.2748 32.1256 92.3706 31.8765 92.5622 31.6657C92.7538 31.4741 93.0029 31.3783 93.2903 31.3783C93.5778 31.3783 93.8269 31.4741 94.0185 31.6657C94.2101 31.8573 94.3059 32.1256 94.3059 32.4322C94.3059 32.7388 94.2101 32.9879 94.0376 33.1795C93.846 33.3711 93.6161 33.486 93.2903 33.486C93.0029 33.486 92.7538 33.3902 92.5622 33.1795ZM103.043 32.7579V33.8884H102.507V30.8993C102.66 30.8993 102.813 30.8993 103.005 30.8993C103.178 30.8993 103.331 30.8993 103.446 30.8993C104.174 30.8993 104.538 31.2059 104.538 31.819C104.538 32.049 104.48 32.2406 104.366 32.3939C104.251 32.528 104.116 32.643 103.963 32.6813L104.921 33.9076H104.27L103.427 32.7771H103.043V32.7579ZM103.407 31.3783C103.388 31.3783 103.369 31.3783 103.331 31.3783C103.292 31.3783 103.254 31.3783 103.197 31.3783H103.043V32.2789H103.388C103.561 32.2789 103.695 32.2406 103.81 32.1639C103.925 32.0873 103.982 31.9723 103.982 31.819C103.982 31.5124 103.791 31.3783 103.407 31.3783ZM112.547 33.8884H113.084V32.3364L114.329 33.8884H115L113.678 32.2789L114.923 30.8801H114.291L113.103 32.2981V30.8801H112.567V33.8884H112.547Z" fill="#2F7AEA"/>
<path d="M9.78582 21.2612L10.8589 13.1177L1.4507 6.58375L10.0541 9.47709L12.0852 6.37298L19.5006 1.77429L35.8451 10.7801L36.6882 24.5186L29.4069 34.6166L23.6585 35.498L26.6285 30.0562V24.8061L24.4633 20.7056L22.2598 19.2493L18.8682 22.7367V26.4156L16.224 28.8874L12.8708 29.2898L11.3762 30.1329L8.94273 29.3473L7.94635 25.7258L9.76666 23.1582V21.2612H9.78582Z" fill="white"/>
<path d="M24.789 6.50713C22.9879 6.14307 21.0334 6.23887 21.0334 6.23887C21.0334 6.23887 20.382 9.20886 16.3964 9.99447C16.4347 9.99447 21.6849 11.7765 24.789 6.50713ZM26.4177 33.5053C28.583 31.8191 30.2117 29.4814 30.9589 26.8372C30.9973 26.7414 31.3038 26.5689 31.4955 26.4348C31.8404 26.224 32.1661 26.0707 32.2427 25.7833C32.3769 24.9977 32.4535 24.1929 32.4535 23.3881C32.4535 23.0816 32.1469 22.775 31.8404 22.4684C31.6104 22.2576 31.3613 22.0277 31.3613 21.8553C31.0164 18.7703 29.5985 15.8961 27.3375 13.8075L27.1075 14.0375C29.3111 16.1069 30.729 18.9044 31.0356 21.8936C31.0739 22.1618 31.3422 22.4301 31.6104 22.6983C31.8404 22.9091 32.1086 23.1965 32.1086 23.3498C32.1086 24.1354 32.032 24.9019 31.8978 25.6875C31.8595 25.8216 31.5529 25.9558 31.323 26.0899C30.9781 26.2623 30.6715 26.4348 30.614 26.703C29.8093 29.5772 27.9506 32.0873 25.4788 33.6969C25.9195 32.758 27.2991 29.673 28.0464 28.121L27.9123 23.1199L23.6202 18.9619L21.1867 19.3068L18.5233 23.6372C18.5233 23.6372 19.7688 25.2276 18.0251 27.0863C16.3006 28.9066 14.9402 29.3281 14.9402 29.3281L13.6947 28.6575C14.0588 28.1785 14.806 27.4695 15.3809 26.9905C16.3581 26.1857 17.3353 26.109 17.3353 25.2276C17.3736 23.4073 15.4 23.9055 15.4 23.9055L14.6911 24.5761L14.3845 27.0863L12.8899 28.9449L12.7175 28.9066L10.284 28.3701C10.284 28.3701 11.7786 27.5845 12.0085 26.703C12.2384 25.8599 11.5295 23.0432 11.5103 22.89C11.5486 22.9283 12.2193 23.5031 12.5259 24.442C13.0624 22.9474 13.7713 21.5295 13.9821 21.3954C14.1929 21.2613 16.9329 19.805 16.9329 19.805L16.0132 22.2002L16.6838 21.8361L18.3125 17.8506C18.3125 17.8506 19.9029 17.065 21.0909 17.065C23.2178 17.0266 26.3603 14.4207 24.9423 9.76453C25.3447 9.93698 32.3769 13.4435 33.6032 20.3607C34.5038 25.6492 31.4955 30.6311 26.4177 33.5053Z" fill="#94A6C3"/>
<path d="M18.37 7.25439C19.1556 6.33465 18.8491 4.99336 18.8491 4.99336L16.5689 8.32741C16.5497 8.32741 17.3928 8.36574 18.37 7.25439ZM10.763 25.5533L11.0313 24.1929C11.0313 24.1929 9.91993 26.1473 9.80496 26.4348C9.70916 26.7413 9.88161 27.2779 10.3032 27.2395C10.7439 27.2012 11.2804 26.5689 11.2804 26.0899C11.2995 25.4767 10.763 25.5533 10.763 25.5533ZM30.844 4.0353C30.844 4.0353 32.5302 4.11195 34.293 4.30356C30.3266 1.19945 26.571 0.279709 23.5435 0.279709C19.3472 0.279709 16.5114 2.00422 16.3389 2.10002L17.6611 0.0114502C17.6611 0.0114502 12.3917 -0.486741 10.5139 5.08917C10.0349 3.90118 9.59419 2.17667 9.59419 2.17667C9.59419 2.17667 6.85414 4.57182 8.13794 8.57651C4.9955 7.42684 0.492618 5.83646 0.320167 5.79814C0.090233 5.75982 0.0135881 5.87478 0.0135881 5.87478C0.0135881 5.87478 -0.063057 5.97059 0.147716 6.14304C0.511779 6.44962 7.62059 11.6998 9.17264 12.6962C8.82774 13.9225 8.82774 14.4973 9.17264 15.0722C9.65168 15.8578 9.67084 16.2602 9.61335 16.835C9.53671 17.4098 8.94271 22.3917 8.80858 22.9857C8.67445 23.5989 7.25652 25.7641 7.31401 26.3964C7.39065 27.0479 8.25291 29.788 9.03852 30.0754C9.61335 30.2862 11.0313 30.7269 11.9893 30.7269C12.3342 30.7269 12.6408 30.6502 12.775 30.5161C13.3498 30.0179 13.5222 29.9029 13.9246 29.9029C13.9629 29.9029 14.0013 29.9029 14.0204 29.9029C14.1929 29.9029 14.3845 29.9413 14.6336 29.9413C15.1701 29.9413 15.8791 29.8455 16.3964 29.3664C17.1437 28.6191 18.4275 27.6036 18.8299 27.1246C19.3281 26.4731 19.6155 25.6108 19.4814 24.7294C19.3856 23.9246 19.8263 23.2157 20.3245 22.4876C20.9759 21.6445 22.1448 20.1116 22.1448 20.1116C24.4825 21.8744 25.9387 24.5378 25.9387 27.5269C25.9387 32.7963 21.34 37.0692 15.6491 37.0692C14.7677 37.0692 13.9246 36.9734 13.0815 36.7627C15.6875 37.6824 17.891 37.989 19.673 37.989C23.4861 37.989 25.5172 36.6094 25.5172 36.6094C25.5172 36.6094 24.8082 37.5291 23.6585 38.5638C23.6968 38.5638 23.6968 38.5638 23.6968 38.5638C30.02 37.6824 33.105 32.4705 33.105 32.4705C33.105 32.4705 32.8751 34.1567 32.5685 35.3064C40.9994 28.9832 39.5623 21.0696 39.5432 20.8014C39.6198 20.8972 40.4629 21.9127 40.9036 22.4684C42.2449 8.53819 30.844 4.0353 30.844 4.0353ZM17.891 26.3006C17.7569 26.4731 17.182 26.9713 16.7796 27.3545C16.3773 27.7186 15.9366 28.1018 15.5917 28.4275C15.4575 28.5617 15.1893 28.6383 14.7869 28.6383C14.6528 28.6383 14.5186 28.6383 14.4228 28.6383C14.3462 28.6383 14.2887 28.6383 14.212 28.6383C14.1354 28.6383 14.1162 28.6383 14.0779 28.6383C13.9821 28.6383 13.8671 28.6383 13.7713 28.6383C14.2695 27.9677 15.7641 26.3964 16.2815 26.0707C16.8946 25.6683 17.2012 25.2659 16.818 24.557C16.4539 23.848 15.4575 24.0205 15.4575 24.0205C15.4575 24.0205 16.0324 23.7905 16.5306 23.7905C15.8791 23.6181 15.0743 23.7905 14.7102 24.1546C14.3078 24.5186 14.3653 25.8408 14.212 26.6839C14.0396 27.5653 13.4648 28.006 12.5833 28.8108C12.1043 29.2515 11.7786 29.3856 11.5103 29.3856C10.9355 29.2898 10.2648 29.1173 9.7858 28.9449C9.4409 28.5042 8.94271 27.0479 8.80858 26.4348C8.90439 26.0899 9.30677 25.3809 9.51755 24.9785C9.91993 24.1929 10.169 23.7522 10.2265 23.3498C10.3606 22.775 10.8013 19.2301 10.9738 17.7356C11.4145 18.3104 12.0277 19.2493 11.8935 19.8625C12.8708 18.4829 12.1618 17.1224 11.8169 16.5859C11.5103 16.0494 11.1079 14.9572 11.4528 13.8075C11.7977 12.6578 13.0049 9.47709 13.0049 9.47709C13.0049 9.47709 13.4073 10.1861 13.9821 10.0519C14.5569 9.91779 19.194 2.94312 19.194 2.94312C19.194 2.94312 20.4394 5.68317 19.1173 7.67593C17.7569 9.6687 16.4539 10.0519 16.4539 10.0519C16.4539 10.0519 18.3125 10.3968 20.037 9.13219C20.746 10.7992 21.4167 12.5237 21.455 12.7537C21.3592 12.9836 19.9987 16.241 19.8646 16.4326C19.788 16.5093 19.3281 16.6434 18.9832 16.7009C18.4083 16.8733 18.0634 16.9691 17.9293 17.0649C17.6994 17.2757 16.6072 20.2457 16.109 21.7019C15.4958 21.8744 14.8827 22.2001 14.442 22.8899C14.6719 22.7175 15.4192 22.6217 15.9557 22.545C16.4347 22.5067 17.891 23.2923 18.2551 24.7486C18.2551 24.7869 18.2551 24.7869 18.2551 24.8252C18.3317 25.3809 18.1593 25.8982 17.891 26.3006ZM14.7102 26.703C15.0168 26.2623 14.9785 25.515 15.0168 25.2851C15.0551 25.0551 15.1126 24.6144 15.3809 24.5378C15.6491 24.4612 16.3006 24.5761 16.3006 25.036C16.3006 25.4767 15.8216 25.5725 15.4958 25.8791C15.2659 26.1282 14.7869 26.6264 14.7102 26.703ZM28.2189 20.2457C28.5638 18.5212 28.5829 17.0266 28.4871 15.8194C29.8093 17.5823 30.614 19.7092 30.8631 21.9127C30.9015 22.181 31.1697 22.4492 31.438 22.7175C31.6679 22.9283 31.9362 23.1965 31.9362 23.369C31.9362 24.1546 31.8595 24.921 31.7254 25.7066C31.6871 25.8024 31.3805 25.9749 31.1506 26.109C30.8056 26.2815 30.4991 26.4539 30.4416 26.7222C29.6943 29.3281 28.1039 31.6274 25.977 33.2561C29.1195 29.9604 30.6524 24.5378 28.2189 20.2457ZM26.092 33.5436C28.2955 31.8574 29.9817 29.4814 30.729 26.818C30.7673 26.7222 31.0739 26.5497 31.2655 26.4156C31.6104 26.2431 31.9362 26.0515 32.0128 25.7641C32.1469 24.9785 32.2236 24.1737 32.2236 23.369C32.2236 23.0624 31.917 22.7558 31.6104 22.4492C31.438 22.2385 31.1697 22.0085 31.1697 21.8361C30.9015 19.3643 29.9242 17.0266 28.3913 15.1105C27.7207 11.0483 24.9998 9.80283 24.9423 9.7645C25.019 9.86031 26.7626 12.4088 25.5555 15.3787C24.31 18.3871 21.0909 17.908 20.8227 17.9463C20.5544 17.9463 19.5005 19.3068 18.1784 21.7977C18.006 21.7211 17.297 21.5678 16.4922 21.7019C17.1054 20.0158 18.006 17.6014 18.1784 17.4098C18.2551 17.3332 18.7532 17.1991 19.0982 17.1033C19.7496 16.9308 20.037 16.835 20.152 16.7009C20.2287 16.6051 20.5544 15.8195 20.8993 15.0147C21.2059 15.0147 21.9723 14.938 22.049 14.9189C22.1256 14.8422 22.7579 13.1944 22.7579 12.9836C22.7579 12.8111 21.4358 9.53457 20.9376 8.28909C21.1676 8.02084 21.4167 7.67594 21.6466 7.31187C28.5829 8.05916 33.9864 13.9417 33.9864 21.0888C33.9672 26.5306 30.7482 31.3017 26.092 33.5436ZM17.0862 15.2638C17.7377 14.5165 17.3928 13.1369 16.2048 12.8878C16.5114 12.1788 16.9521 10.7609 16.9521 10.7609C16.9521 10.7609 13.5031 16.1643 13.1965 16.2793C12.8899 16.3751 12.5833 15.2063 12.5833 15.2063C11.9319 17.6781 13.6564 18.023 13.8671 17.2374C14.8252 16.9883 16.4347 15.9727 17.0862 15.2638Z" fill="#1B314F"/>
<path d="M14.1354 16.5859L15.8982 13.5776C15.8982 13.5776 16.9138 14.0758 16.3964 14.8997C15.7641 15.8386 14.1354 16.5859 14.1354 16.5859Z" fill="#FFD923"/>
<path d="M35.8834 30.5353C35.3852 31.2059 34.8103 31.9149 34.1205 32.6047C38.4893 24.2121 34.3313 16.5284 34.1589 16.241C34.4654 16.5476 34.772 16.8925 35.0403 17.1799C38.3935 20.878 38.7959 26.4731 35.8834 30.5353ZM39.9455 19.7283C38.4318 15.6279 36.2666 12.1597 31.4954 8.99807C26.8968 5.95144 21.9532 6.18138 21.6849 6.2197C21.6466 6.2197 21.6083 6.2197 21.6083 6.2197C21.7807 6.14305 21.9532 6.12389 22.1065 6.08557C23.1603 5.74067 24.5016 5.47241 25.862 5.29996C29.4452 4.80177 33.0667 6.00892 35.5385 8.61485C35.5768 8.65317 35.5768 8.65317 35.6151 8.6915C38.4318 11.6806 39.8881 15.3979 39.9455 19.7283ZM30.4033 2.98145C25.3639 2.04255 22.1065 2.50242 19.7879 3.38384C19.7113 3.11558 19.4814 2.57907 19.2898 2.13836C18.5808 2.98145 17.8335 3.997 17.3545 4.64848C16.0707 5.5299 15.5342 6.37299 15.5342 6.37299C16.2814 3.84371 18.4467 1.94675 21.0909 1.46772C21.8382 1.33359 22.643 1.25694 23.5244 1.25694C25.8429 1.29527 28.1806 1.8701 30.4033 2.98145ZM11.7786 9.4771C7.81219 9.34297 9.13431 4.74428 9.21096 4.47603C9.21096 4.51435 9.47922 8.09749 11.7786 9.4771ZM15.6683 1.19946C12.6217 3.01978 13.2348 7.38853 13.2348 7.38853C10.3223 2.96229 15.4192 1.29527 15.6683 1.19946Z" fill="#D82122"/>
<path d="M10.6672 10.7034C10.878 10.8759 11.0696 11.1825 10.8397 11.6232C10.7055 11.8531 10.4947 11.834 10.1882 11.6998C9.78578 11.4891 7.35231 10.0711 5.14877 8.61487C7.65889 9.49628 10.1882 10.4352 10.5906 10.646C10.5906 10.6268 10.6289 10.6651 10.6672 10.7034Z" fill="white"/>
</svg>
