<svg xmlns="http://www.w3.org/2000/svg" width="98" height="24" viewBox="0 0 98 24" fill="none"><path d="M28.6087 19.2336V19.8055H26.2012V5.59863H28.6087V10.4155C28.6087 10.6349 28.8656 10.7418 29.0287 10.5936C29.6344 10.048 30.5137 9.70113 31.53 9.70113C34.47 9.70113 36.2269 11.7936 36.2269 14.8311C36.2269 17.8686 34.47 19.9611 31.4906 19.9611C30.5325 19.9611 29.6381 19.6236 29.0231 19.048C28.8656 18.8999 28.6087 19.0161 28.6087 19.2318V19.2336ZM33.8175 14.833C33.8175 12.9974 32.8594 11.7936 31.4062 11.7936C29.9531 11.7936 28.995 12.9974 28.995 14.833C28.995 16.6686 29.9531 17.8724 31.4062 17.8724C32.8594 17.8724 33.8175 16.6686 33.8175 14.833Z" fill="white"></path><path d="M41.8237 5.7168V8.30055H39.3337V5.7168H41.8237ZM39.375 9.86055H41.8012V19.8055H39.375V9.86055Z" fill="white"></path><path d="M49.8919 11.8931C48.3525 11.8931 47.7412 13.2149 47.7412 15.1087V19.8056H45.315V9.86056H47.7412V10.3012C47.7412 10.4681 47.9512 10.5374 48.0525 10.4062C48.5437 9.76868 49.2469 9.86056 50.2875 9.86056H51.4519V11.8931H49.8919Z" fill="white"></path><path d="M53.1056 14.833C53.1056 11.7936 54.8606 9.70301 57.8025 9.70301C58.8318 9.70301 59.7018 10.048 60.3018 10.5918C60.465 10.738 60.7218 10.633 60.7218 10.4136V5.59863H63.1293V19.8055H60.7218V19.2336C60.7218 19.018 60.465 18.9036 60.3075 19.0499C59.6943 19.6255 58.7981 19.9611 57.8418 19.9611C54.8625 19.9611 53.1056 17.8686 53.1056 14.8311V14.833ZM60.3356 14.833C60.3356 12.9974 59.3775 11.7936 57.9243 11.7936C56.4712 11.7936 55.5131 12.9974 55.5131 14.833C55.5131 16.6686 56.4712 17.8724 57.9243 17.8724C59.3775 17.8724 60.3356 16.6686 60.3356 14.833Z" fill="white"></path><path d="M75.405 16.4906C75.03 18.6019 73.1756 19.9631 70.7287 19.9631C67.4719 19.9631 65.6569 17.3981 65.6569 14.7937C65.6569 12.1894 67.275 9.70312 70.5319 9.70312C73.7887 9.70312 75.3656 12.1294 75.3656 14.4975C75.3656 14.8331 75.345 15.1294 75.3262 15.3262H68.2744C68.1169 15.3262 68.0006 15.4706 68.0287 15.6244C68.295 17.0513 69.2869 17.9512 70.7269 17.9512C71.97 17.9512 72.78 17.4375 73.035 16.4906H75.4031H75.405ZM68.3512 13.7269H72.6544C72.81 13.7269 72.9281 13.5844 72.9 13.4325C72.6975 12.3206 71.8575 11.5181 70.53 11.5181C69.2025 11.5181 68.4281 12.1294 68.1094 13.4156C68.07 13.5731 68.1881 13.7288 68.3512 13.7288V13.7269Z" fill="white"></path><path d="M82.9087 19.3314L81.3693 23.8314H79.0612L80.3437 20.147C80.4206 19.9258 80.4187 19.6858 80.3381 19.4645L76.8318 9.85889H79.2975L81.6056 16.6858L83.895 9.85889H86.3812L82.9087 19.3314Z" fill="white"></path><path d="M97.0369 16.4906C96.6619 18.6019 94.8075 19.9631 92.3606 19.9631C89.1038 19.9631 87.2888 17.3981 87.2888 14.7937C87.2888 12.1894 88.9069 9.70312 92.1638 9.70312C95.4206 9.70312 96.9975 12.1294 96.9975 14.4975C96.9975 14.8331 96.9769 15.1294 96.9581 15.3262H89.9063C89.7488 15.3262 89.6325 15.4706 89.6606 15.6244C89.9269 17.0513 90.9188 17.9512 92.3588 17.9512C93.6019 17.9512 94.41 17.4375 94.6669 16.4906H97.035H97.0369ZM89.9831 13.7269H94.2863C94.4419 13.7269 94.56 13.5844 94.5319 13.4325C94.3294 12.3206 93.4875 11.5181 92.1619 11.5181C90.8363 11.5181 90.06 12.1294 89.7413 13.4156C89.7019 13.5731 89.82 13.7288 89.9831 13.7288V13.7269Z" fill="white"></path><path d="M15.5719 7.94625C14.4656 7.27875 13.9856 5.6025 14.4731 4.4625C14.8575 3.56438 16.2413 0.375 16.2413 0.375H11.4412L0.75 21.7819C0.75 21.7819 3.74813 19.7606 8.17313 21.6994C9.55688 22.3069 11.0138 22.8806 12.6544 22.7831C16.5169 22.5525 19.605 19.5712 19.9556 15.7144C20.2669 12.3112 18.3375 9.61312 15.5738 7.94437L15.5719 7.94625ZM16.8431 15.465C16.6256 17.6625 14.8481 19.44 12.6506 19.6556C9.68062 19.95 7.21125 17.4787 7.50188 14.5069C7.71938 12.3094 9.49688 10.5319 11.6944 10.3144C14.6663 10.0219 17.1375 12.4931 16.8431 15.465Z" fill="white"></path><path d="M14.3925 15.2119C14.2894 16.2562 13.4438 17.1019 12.3994 17.2031C10.9875 17.3437 9.81376 16.1681 9.95251 14.7562C10.0556 13.7119 10.9013 12.8662 11.9456 12.7631C13.3575 12.6244 14.5331 13.7981 14.3925 15.2119Z" fill="#FF6D00"></path></svg>
