<svg width="175" height="28" viewBox="0 0 175 28" fill="none" xmlns="http://www.w3.org/2000/svg">
    <path d="M56.7525 5.5137V1.375H42.8672V23.3227H47.4513V14.8571H56.4867V10.7184H47.4513V5.5137H56.7525Z" fill="white"/>
    <path d="M71.9618 23.7693C78.9313 23.7693 84.5206 18.7487 84.5206 12.3475C84.5206 5.91495 78.9313 0.925781 71.9618 0.925781C64.9923 0.925781 59.4375 5.91495 59.4375 12.3475C59.4375 18.7487 64.9923 23.7693 71.9618 23.7693ZM71.9618 19.5333C67.5801 19.5333 64.1642 16.5523 64.1642 12.3475C64.1642 8.11145 67.5801 5.1305 71.9618 5.1305C76.3437 5.1305 79.7593 8.11145 79.7593 12.3475C79.7593 16.5523 76.3437 19.5333 71.9618 19.5333Z" fill="white"/>
    <path d="M101.009 23.3227H106.018L100.808 15.0452C103.497 13.8851 105.346 11.4082 105.346 8.64908C105.346 4.63579 101.85 1.375 97.5135 1.375H88.1016V23.3227H92.7403V15.7036H96.2698L101.009 23.3227ZM92.7403 5.41963H97.5135C99.2616 5.41963 100.707 6.83056 100.707 8.64908C100.707 10.4676 99.2616 11.9099 97.5135 11.9099H92.7403V5.41963Z" fill="white"/>
    <path d="M118.672 1.375H109.156V23.3227H118.672C125.279 23.3227 130.208 18.5255 130.208 12.3488C130.208 6.17213 125.279 1.375 118.672 1.375ZM118.672 19.1839H113.88V5.5137H118.672C122.814 5.5137 125.69 8.30418 125.69 12.3488C125.69 16.3934 122.814 19.1839 118.672 19.1839Z" fill="white"/>
    <path d="M138.5 19.1839V14.2614H147.546V10.1854H138.5V5.5137H148.399V1.375H133.789V23.3227H148.57V19.1839H138.5Z" fill="white"/>
    <path d="M166.489 5.5137V1.375H152.156V23.3227H156.888V14.8571H166.215V10.7184H156.888V5.5137H166.489Z" fill="white"/>
    <path d="M170.516 1.375V23.3227H174.995V1.375H170.516Z" fill="white"/>
    <path d="M14.3332 19.707H0V23.244C0 25.7433 2.03188 27.7695 4.53836 27.7695H10.3177L14.3332 19.707Z" fill="#486DFF"/>
    <path d="M0 10.3008H27.3227L24.1506 17.0195H0V10.3008Z" fill="#486DFF"/>
    <path d="M9.58195 0H0V7.61448L32.6976 7.61452V2.21119e-05H23.1158V5.6869H21.1394V2.21119e-05H11.5575V5.6869H9.58195V0Z" fill="#486DFF"/>
</svg>
