<svg width="200" height="52" viewBox="0 0 200 52" fill="none" xmlns="http://www.w3.org/2000/svg">
    <path d="M26 52C40.3594 52 52 40.3594 52 26C52 25.7669 51.9969 25.5345 51.9908 25.3028H30.5V31.5H39.5L44 36H26V20.5H51.4172C48.8936 8.78214 38.4724 0 26 0C11.6406 0 0 11.6406 0 26C0 40.3594 11.6406 52 26 52Z" fill="url(#paint0_linear_17601_2950)"/>
    <path d="M75.13 33.264C73.9127 33.264 72.8127 33.1027 71.83 32.78C70.8473 32.4573 70.004 31.988 69.3 31.372C68.6107 30.7413 68.0753 29.9713 67.694 29.062C67.3273 28.1527 67.144 27.126 67.144 25.982C67.144 24.8233 67.342 23.782 67.738 22.858C68.134 21.934 68.6987 21.1493 69.432 20.504C70.1653 19.844 71.038 19.3453 72.05 19.008C73.062 18.656 74.1767 18.48 75.394 18.48C76.8167 18.48 78.0487 18.7 79.09 19.14C80.1313 19.58 80.96 20.196 81.576 20.988C82.192 21.7653 82.544 22.6893 82.632 23.76H80.322C80.1313 23.1293 79.816 22.5867 79.376 22.132C78.9507 21.6773 78.4007 21.3253 77.726 21.076C77.066 20.812 76.2887 20.68 75.394 20.68C74.2207 20.68 73.2013 20.9073 72.336 21.362C71.4853 21.802 70.8327 22.4253 70.378 23.232C69.9233 24.024 69.696 24.9407 69.696 25.982C69.696 27.0233 69.894 27.9253 70.29 28.688C70.7007 29.436 71.3167 30.0227 72.138 30.448C72.9593 30.8587 73.9787 31.064 75.196 31.064C76.1347 31.064 76.956 30.9247 77.66 30.646C78.3787 30.3527 78.9727 29.9493 79.442 29.436C79.9113 28.9227 80.2413 28.3287 80.432 27.654L81.554 27.39C81.3487 29.282 80.674 30.734 79.53 31.746C78.4007 32.758 76.934 33.264 75.13 33.264ZM80.96 33C80.96 32.5307 80.982 32.0027 81.026 31.416C81.07 30.8147 81.1213 30.206 81.18 29.59C81.2533 28.9593 81.3193 28.3947 81.378 27.896H75.482V26.092H83.182V33H80.96ZM88.765 17.402V19.756H85.839V17.402H88.765ZM86.059 22.044H88.523V33H86.059V22.044ZM96.816 31.262H95.958L99.742 22.044H102.404L97.564 33H95.232L90.458 22.044H93.142L96.816 31.262ZM112.889 29.392H115.243C115.126 30.14 114.832 30.8073 114.363 31.394C113.908 31.966 113.285 32.4207 112.493 32.758C111.701 33.0807 110.755 33.242 109.655 33.242C108.408 33.242 107.294 33.0147 106.311 32.56C105.328 32.0907 104.558 31.4307 104.001 30.58C103.444 29.7293 103.165 28.7173 103.165 27.544C103.165 26.3853 103.436 25.3733 103.979 24.508C104.522 23.6427 105.27 22.9753 106.223 22.506C107.191 22.0367 108.306 21.802 109.567 21.802C110.872 21.802 111.958 22.0367 112.823 22.506C113.703 22.9607 114.356 23.65 114.781 24.574C115.206 25.4833 115.382 26.6347 115.309 28.028H105.651C105.724 28.644 105.922 29.2013 106.245 29.7C106.582 30.184 107.037 30.5653 107.609 30.844C108.181 31.108 108.848 31.24 109.611 31.24C110.462 31.24 111.173 31.0713 111.745 30.734C112.332 30.3967 112.713 29.9493 112.889 29.392ZM109.501 23.782C108.504 23.782 107.682 24.0313 107.037 24.53C106.392 25.014 105.974 25.6373 105.783 26.4H112.845C112.786 25.5787 112.456 24.9407 111.855 24.486C111.254 24.0167 110.469 23.782 109.501 23.782ZM116.893 28.27H119.335C119.394 28.8127 119.606 29.304 119.973 29.744C120.354 30.1693 120.853 30.5067 121.469 30.756C122.1 30.9907 122.818 31.108 123.625 31.108C124.344 31.108 124.938 31.02 125.407 30.844C125.876 30.668 126.221 30.426 126.441 30.118C126.676 29.7953 126.793 29.4213 126.793 28.996C126.793 28.5707 126.654 28.2407 126.375 28.006C126.111 27.7567 125.7 27.5513 125.143 27.39C124.586 27.214 123.874 27.0453 123.009 26.884C122.29 26.752 121.594 26.576 120.919 26.356C120.244 26.136 119.636 25.8573 119.093 25.52C118.565 25.1827 118.147 24.772 117.839 24.288C117.531 23.7893 117.377 23.2027 117.377 22.528C117.377 21.7653 117.59 21.076 118.015 20.46C118.455 19.844 119.1 19.36 119.951 19.008C120.802 18.656 121.836 18.48 123.053 18.48C124.916 18.48 126.338 18.9127 127.321 19.778C128.304 20.6287 128.78 21.7873 128.751 23.254H126.353C126.309 22.33 125.972 21.6627 125.341 21.252C124.71 20.8413 123.911 20.636 122.943 20.636C122.078 20.636 121.352 20.79 120.765 21.098C120.178 21.406 119.885 21.9047 119.885 22.594C119.885 22.8873 119.951 23.144 120.083 23.364C120.23 23.5693 120.464 23.76 120.787 23.936C121.11 24.0973 121.55 24.2587 122.107 24.42C122.679 24.5667 123.376 24.728 124.197 24.904C124.901 25.0213 125.561 25.1827 126.177 25.388C126.793 25.5933 127.328 25.85 127.783 26.158C128.252 26.466 128.619 26.862 128.883 27.346C129.147 27.83 129.279 28.424 129.279 29.128C129.279 29.9347 129.074 30.6533 128.663 31.284C128.252 31.9 127.622 32.3913 126.771 32.758C125.935 33.11 124.85 33.286 123.515 33.286C122.503 33.286 121.616 33.1687 120.853 32.934C120.105 32.6847 119.467 32.3693 118.939 31.988C118.411 31.592 117.986 31.1667 117.663 30.712C117.355 30.2573 117.135 29.8173 117.003 29.392C116.886 28.952 116.849 28.578 116.893 28.27ZM130.746 22.044H138.49V24.046H130.746V22.044ZM133.386 19.096H135.85V33H133.386V19.096ZM145.123 33.242C144.126 33.242 143.209 33 142.373 32.516C141.552 32.032 140.892 31.3647 140.393 30.514C139.909 29.6487 139.667 28.6587 139.667 27.544C139.667 26.4 139.916 25.4027 140.415 24.552C140.914 23.6867 141.588 23.012 142.439 22.528C143.29 22.044 144.243 21.802 145.299 21.802C146.472 21.802 147.404 22.0587 148.093 22.572C148.782 23.0853 149.274 23.7747 149.567 24.64C149.86 25.5053 150.007 26.4733 150.007 27.544C150.007 28.1453 149.919 28.7833 149.743 29.458C149.567 30.118 149.288 30.734 148.907 31.306C148.54 31.878 148.042 32.3473 147.411 32.714C146.795 33.066 146.032 33.242 145.123 33.242ZM145.871 31.218C146.692 31.218 147.389 31.064 147.961 30.756C148.548 30.4333 148.988 29.9933 149.281 29.436C149.589 28.8787 149.743 28.248 149.743 27.544C149.743 26.7667 149.589 26.1067 149.281 25.564C148.973 25.0067 148.533 24.5813 147.961 24.288C147.389 23.98 146.692 23.826 145.871 23.826C144.698 23.826 143.788 24.1707 143.143 24.86C142.498 25.5493 142.175 26.444 142.175 27.544C142.175 28.2627 142.329 28.9007 142.637 29.458C142.96 30.0153 143.4 30.448 143.957 30.756C144.514 31.064 145.152 31.218 145.871 31.218ZM149.743 22.044H152.207V33H149.919C149.919 33 149.904 32.8607 149.875 32.582C149.846 32.3033 149.816 31.966 149.787 31.57C149.758 31.1593 149.743 30.7707 149.743 30.404V22.044ZM154.121 22.044H161.865V24.046H154.121V22.044ZM156.761 19.096H159.225V33H156.761V19.096ZM166.646 17.402V19.756H163.72V17.402H166.646ZM163.94 22.044H166.404V33H163.94V22.044ZM175.159 33.242C173.942 33.242 172.849 33.022 171.881 32.582C170.913 32.142 170.15 31.4967 169.593 30.646C169.036 29.7953 168.757 28.7613 168.757 27.544C168.757 26.3413 169.036 25.3147 169.593 24.464C170.15 23.5987 170.913 22.9387 171.881 22.484C172.849 22.0293 173.942 21.802 175.159 21.802C176.376 21.802 177.462 22.0293 178.415 22.484C179.368 22.9387 180.116 23.5987 180.659 24.464C181.216 25.3147 181.495 26.3413 181.495 27.544C181.495 28.7613 181.216 29.7953 180.659 30.646C180.116 31.4967 179.368 32.142 178.415 32.582C177.462 33.022 176.376 33.242 175.159 33.242ZM175.159 31.24C175.863 31.24 176.508 31.1007 177.095 30.822C177.682 30.5433 178.144 30.1253 178.481 29.568C178.833 29.0107 179.009 28.336 179.009 27.544C179.009 26.752 178.833 26.0773 178.481 25.52C178.144 24.9627 177.682 24.5373 177.095 24.244C176.523 23.936 175.878 23.782 175.159 23.782C174.44 23.782 173.788 23.9287 173.201 24.222C172.614 24.5153 172.138 24.9407 171.771 25.498C171.419 26.0553 171.243 26.7373 171.243 27.544C171.243 28.336 171.419 29.0107 171.771 29.568C172.123 30.1253 172.592 30.5433 173.179 30.822C173.78 31.1007 174.44 31.24 175.159 31.24ZM183.68 22.044H186.122V33H183.68V22.044ZM190.742 21.802C191.373 21.802 191.952 21.89 192.48 22.066C193.023 22.242 193.485 22.5133 193.866 22.88C194.262 23.232 194.563 23.672 194.768 24.2C194.988 24.728 195.098 25.3513 195.098 26.07V33H192.656V26.554C192.656 25.6593 192.436 24.9993 191.996 24.574C191.571 24.134 190.896 23.914 189.972 23.914C189.268 23.914 188.623 24.068 188.036 24.376C187.464 24.6693 186.995 25.058 186.628 25.542C186.262 26.0113 186.049 26.532 185.99 27.104L185.968 25.916C186.042 25.3733 186.203 24.86 186.452 24.376C186.702 23.8773 187.032 23.4373 187.442 23.056C187.853 22.66 188.337 22.352 188.894 22.132C189.452 21.912 190.068 21.802 190.742 21.802Z" fill="url(#paint1_linear_17601_2950)"/>
    <defs>
        <linearGradient id="paint0_linear_17601_2950" x1="0" y1="26" x2="36" y2="26" gradientUnits="userSpaceOnUse">
            <stop stop-color="#338DF4"/>
            <stop offset="1" stop-color="#4ECEC5"/>
        </linearGradient>
        <linearGradient id="paint1_linear_17601_2950" x1="66" y1="26" x2="197" y2="26" gradientUnits="userSpaceOnUse">
            <stop stop-color="#85FFC4"/>
            <stop offset="0.510417" stop-color="#5CC6FF"/>
            <stop offset="1" stop-color="#BC85FF"/>
        </linearGradient>
    </defs>
</svg>
