<svg width="171" height="26" viewBox="0 0 171 26" fill="none" xmlns="http://www.w3.org/2000/svg">
  <g filter="url(#filter0_d_4803_2217)">
    <path d="M6.90442 21.2946H4.33787C4.28159 21.295 4.22612 21.2811 4.17657 21.2544C4.12702 21.2277 4.08498 21.189 4.0543 21.1418C4.02361 21.0945 4.00528 21.0404 4.00098 20.9842C3.99668 20.9281 4.00655 20.8717 4.02969 20.8204L12.3827 4.16219C12.4076 4.11318 12.4456 4.07206 12.4925 4.04342C12.5394 4.01478 12.5934 3.99975 12.6483 4H15.2143C15.2705 3.99972 15.3259 4.01356 15.3753 4.04024C15.4248 4.06692 15.4668 4.10559 15.4975 4.15272C15.5281 4.19984 15.5465 4.25391 15.5509 4.30998C15.5552 4.36604 15.5455 4.4223 15.5225 4.47361L7.17254 21.1318C7.14753 21.1813 7.10915 21.2228 7.06176 21.2516C7.01437 21.2804 6.95986 21.2953 6.90442 21.2946V21.2946Z" fill="#8CE605"/>
  </g>
  <g filter="url(#filter1_d_4803_2217)">
    <path d="M14.8805 21.2946H12.2289C12.1793 21.2946 12.1306 21.2822 12.0871 21.2584C12.0436 21.2347 12.0068 21.2005 11.98 21.1588C11.9531 21.1172 11.9371 21.0695 11.9334 21.0201C11.9298 20.9706 11.9385 20.9211 11.9589 20.8759L20.344 4.14371C20.366 4.09998 20.3999 4.06333 20.4417 4.03793C20.4836 4.01253 20.5317 3.99939 20.5806 4.00002H23.231C23.2805 4.00006 23.3293 4.01251 23.3728 4.03624C23.4162 4.05996 23.4531 4.09421 23.4799 4.13585C23.5068 4.17749 23.5228 4.2252 23.5264 4.27462C23.5301 4.32403 23.5214 4.37358 23.501 4.41874L15.1172 21.151C15.0951 21.1946 15.0612 21.2312 15.0193 21.2566C14.9775 21.282 14.9294 21.2952 14.8805 21.2946V21.2946Z" fill="#8CE605"/>
  </g>
  <path d="M31.4041 7.005C31.1406 7.005 31 7.13754 31 7.41323V19.5858C31 19.8641 31.1406 19.994 31.4041 19.994H33.3018C33.3545 20.003 33.4085 19.9987 33.4593 19.9814C33.5101 19.964 33.5563 19.9342 33.594 19.8943C33.6318 19.8545 33.66 19.8057 33.6764 19.7521C33.6928 19.6984 33.6969 19.6414 33.6884 19.5858V14.6499H41.9091V19.5858C41.9005 19.6414 41.9046 19.6984 41.921 19.7521C41.9374 19.8057 41.9657 19.8545 42.0034 19.8943C42.0412 19.9342 42.0874 19.964 42.1382 19.9814C42.189 19.9987 42.2429 20.003 42.2956 19.994H44.1933C44.4569 19.994 44.5974 19.8614 44.5974 19.5858V7.41323C44.5974 7.13489 44.4569 7.005 44.1933 7.005H42.2982C42.2455 6.99598 42.1915 7.00031 42.1407 7.01764C42.0899 7.03496 42.0437 7.06478 42.0059 7.10465C41.9682 7.14451 41.94 7.19328 41.9236 7.24693C41.9071 7.30058 41.903 7.35757 41.9116 7.41323V12.2404H33.6884V7.41588C33.6969 7.36023 33.6928 7.30323 33.6764 7.24958C33.66 7.19593 33.6318 7.14716 33.594 7.1073C33.5563 7.06743 33.5101 7.03761 33.4593 7.02029C33.4085 7.00296 33.3545 6.99863 33.3018 7.00765L31.4041 7.005ZM58.5764 7.005C57.8384 7.005 57.3113 7.30189 56.7315 8.41523L50.9707 19.5672C50.8452 19.8084 50.9004 19.994 51.1991 19.994H53.4833C53.5665 20.0072 53.6516 19.9907 53.7248 19.947C53.7981 19.9033 53.8553 19.8349 53.8875 19.7528L55.0999 17.3591H63.3582L64.6058 19.7528C64.636 19.8364 64.6929 19.9062 64.7667 19.9502C64.8405 19.9943 64.9265 20.0098 65.0099 19.994H67.2414C67.5226 19.994 67.5753 19.8084 67.4523 19.5672L61.6363 8.41523C61.0564 7.30189 60.5117 7.005 59.6156 7.005H58.5764ZM58.963 9.7698C58.9789 9.72981 59.0059 9.6958 59.0403 9.67217C59.0748 9.64854 59.1152 9.63638 59.1563 9.63726H59.2617C59.3028 9.63638 59.3432 9.64854 59.3776 9.67217C59.4121 9.6958 59.439 9.72981 59.455 9.7698L62.2488 15.204H56.2068L58.963 9.7698ZM73.5068 7.005C73.2432 7.005 73.1026 7.13754 73.1026 7.41323V15.0953C73.1026 18.658 74.4732 19.994 78.0225 19.994H85.2442C85.2969 20.003 85.3508 19.9987 85.4016 19.9814C85.4525 19.964 85.4986 19.9342 85.5364 19.8943C85.5741 19.8545 85.6024 19.8057 85.6188 19.7521C85.6352 19.6984 85.6393 19.6414 85.6307 19.5858V17.7673C85.6393 17.7117 85.6352 17.6547 85.6188 17.601C85.6024 17.5474 85.5741 17.4986 85.5364 17.4587C85.4986 17.4189 85.4525 17.389 85.4016 17.3717C85.3508 17.3544 85.2969 17.3501 85.2442 17.3591H78.1279C76.3181 17.3591 75.791 16.7839 75.791 14.8169V7.41323C75.7995 7.35757 75.7954 7.30058 75.779 7.24693C75.7626 7.19328 75.7344 7.14451 75.6966 7.10465C75.6589 7.06478 75.6127 7.03496 75.5619 7.01764C75.5111 7.00031 75.4571 6.99598 75.4044 7.005H73.5068ZM92.634 7.005C92.5624 6.99413 92.4894 7.00104 92.4207 7.02517C92.3521 7.0493 92.2897 7.09 92.2386 7.14402C92.1874 7.19805 92.1489 7.26393 92.126 7.33642C92.1032 7.40892 92.0966 7.48604 92.1069 7.56167V19.4373C92.0966 19.5129 92.1032 19.5901 92.126 19.6626C92.1489 19.7351 92.1874 19.8009 92.2386 19.855C92.2897 19.909 92.3521 19.9497 92.4207 19.9738C92.4894 19.998 92.5624 20.0049 92.634 19.994H103.074C105.411 19.994 106.184 18.7508 106.184 16.7839V15.7076C106.217 15.2283 106.121 14.7488 105.906 14.3251C105.692 13.9013 105.367 13.5506 104.971 13.3139C105.337 13.0591 105.634 12.7074 105.831 12.2939C106.028 11.8805 106.12 11.4197 106.096 10.9574V10.0667C106.096 8.00701 105.182 7.005 102.757 7.005H92.634ZM101.999 14.4273C103.159 14.4273 103.528 14.8355 103.528 15.5963V16.3014C103.528 17.0807 103.159 17.4333 102.228 17.4333H95.0237C94.8656 17.4333 94.7953 17.3591 94.7953 17.1921V14.4273H101.999ZM94.7953 9.80691C94.7953 9.63991 94.8656 9.56569 95.0237 9.56569H102.21C103.124 9.56569 103.51 9.91824 103.51 10.679V11.3126C103.51 12.0362 103.159 12.4074 101.999 12.4074H94.7953V9.80691ZM117.929 7.005C114.379 7.005 113.009 8.34101 113.009 11.9037V15.0953C113.009 18.658 114.379 19.994 117.929 19.994H123.358C126.925 19.994 128.278 18.658 128.278 15.0953V11.9037C128.278 8.34101 126.925 7.005 123.358 7.005H117.929ZM115.697 12.1078C115.697 10.1595 116.224 9.58424 118.034 9.58424H123.253C125.063 9.58424 125.59 10.1595 125.59 12.1078V14.8912C125.59 16.8395 125.063 17.4147 123.253 17.4147H118.034C116.224 17.4147 115.697 16.8395 115.697 14.8912V12.1078ZM135.879 7.005C135.807 6.99413 135.734 7.00104 135.665 7.02517C135.597 7.0493 135.534 7.09 135.483 7.14402C135.432 7.19805 135.394 7.26393 135.371 7.33642C135.348 7.40892 135.341 7.48604 135.352 7.56167V19.5858C135.352 19.8641 135.492 19.994 135.756 19.994H137.651C137.704 20.003 137.758 19.9987 137.808 19.9814C137.859 19.964 137.905 19.9342 137.943 19.8943C137.981 19.8545 138.009 19.8057 138.026 19.7521C138.042 19.6984 138.046 19.6414 138.037 19.5858V15.8932H143.713L146.489 19.7528C146.595 19.9198 146.682 19.994 146.981 19.994H149.248C149.3 19.9982 149.353 19.986 149.399 19.9589C149.445 19.9318 149.483 19.8911 149.507 19.8417C149.531 19.7923 149.541 19.7364 149.536 19.681C149.53 19.6256 149.51 19.5731 149.476 19.5301L146.472 15.5963C148.317 15.2437 149.09 14.0005 149.09 11.8851V10.8248C149.09 8.3198 148 7.00235 145.312 7.00235L135.879 7.005ZM138.04 9.7698C138.04 9.62135 138.11 9.54713 138.268 9.54713H144.77C145.962 9.54713 146.401 10.0852 146.401 11.1986V11.9753C146.401 13.0886 145.962 13.6267 144.77 13.6267H138.04V9.7698ZM157.732 7.005C156.66 7.005 156.151 7.43178 156.151 8.93479V19.5858C156.151 19.8641 156.291 19.994 156.555 19.994H158.4C158.452 20.003 158.506 19.9987 158.557 19.9814C158.608 19.964 158.654 19.9342 158.692 19.8943C158.73 19.8545 158.758 19.8057 158.774 19.7521C158.791 19.6984 158.795 19.6414 158.786 19.5858V9.89969C158.786 9.76715 158.821 9.71413 158.927 9.71413H159.085C159.131 9.7126 159.176 9.7241 159.216 9.74741C159.257 9.77073 159.29 9.80501 159.313 9.84667L165.865 18.8992C166.568 19.8827 166.831 19.994 167.903 19.994H169.414C170.486 19.994 170.996 19.5672 170.996 18.0642V7.41323C171.004 7.35757 171 7.30058 170.984 7.24693C170.967 7.19328 170.939 7.14451 170.901 7.10465C170.864 7.06478 170.817 7.03496 170.767 7.01764C170.716 7.00031 170.662 6.99598 170.609 7.005H168.764C168.711 6.99598 168.657 7.00031 168.607 7.01764C168.556 7.03496 168.51 7.06478 168.472 7.10465C168.434 7.14451 168.406 7.19328 168.39 7.24693C168.373 7.30058 168.369 7.35757 168.378 7.41323V17.0993C168.378 17.2318 168.325 17.2849 168.237 17.2849H168.079C168.033 17.2886 167.987 17.278 167.946 17.2545C167.905 17.2309 167.872 17.1954 167.85 17.1523L161.314 8.09979C160.646 7.15345 160.4 7.005 159.276 7.005H157.732Z" fill="white"/>
  <defs>
    <filter id="filter0_d_4803_2217" x="0" y="0" width="19.5518" height="25.2947" filterUnits="userSpaceOnUse" color-interpolation-filters="sRGB">
      <feFlood flood-opacity="0" result="BackgroundImageFix"/>
      <feColorMatrix in="SourceAlpha" type="matrix" values="0 0 0 0 0 0 0 0 0 0 0 0 0 0 0 0 0 0 127 0" result="hardAlpha"/>
      <feOffset/>
      <feGaussianBlur stdDeviation="2"/>
      <feComposite in2="hardAlpha" operator="out"/>
      <feColorMatrix type="matrix" values="0 0 0 0 0.568627 0 0 0 0 0.866667 0 0 0 0 0.129412 0 0 0 1 0"/>
      <feBlend mode="normal" in2="BackgroundImageFix" result="effect1_dropShadow_4803_2217"/>
      <feBlend mode="normal" in="SourceGraphic" in2="effect1_dropShadow_4803_2217" result="shape"/>
    </filter>
    <filter id="filter1_d_4803_2217" x="7.93262" y="0" width="19.5947" height="25.2947" filterUnits="userSpaceOnUse" color-interpolation-filters="sRGB">
      <feFlood flood-opacity="0" result="BackgroundImageFix"/>
      <feColorMatrix in="SourceAlpha" type="matrix" values="0 0 0 0 0 0 0 0 0 0 0 0 0 0 0 0 0 0 127 0" result="hardAlpha"/>
      <feOffset/>
      <feGaussianBlur stdDeviation="2"/>
      <feComposite in2="hardAlpha" operator="out"/>
      <feColorMatrix type="matrix" values="0 0 0 0 0.568627 0 0 0 0 0.866667 0 0 0 0 0.129412 0 0 0 1 0"/>
      <feBlend mode="normal" in2="BackgroundImageFix" result="effect1_dropShadow_4803_2217"/>
      <feBlend mode="normal" in="SourceGraphic" in2="effect1_dropShadow_4803_2217" result="shape"/>
    </filter>
  </defs>
</svg>
