<svg id="Layer_2" data-name="Layer 2" xmlns="http://www.w3.org/2000/svg" viewBox="0 0 562.18 118.07">
    <defs>
        <style>
            .cls-1 {
            fill: #f2f2f2;
            stroke-width: 0px;
            }
        </style>
    </defs>
    <g id="Layer_1-2">
        <g>
            <g>
                <path class="cls-1" d="M74.65,24.74c-4.64-1.96-9.74-3.04-15.1-3.04s-10.46,1.08-15.1,3.04L58.32.71c.54-.94,1.9-.94,2.44,0l13.88,24.03Z"/>
                <path class="cls-1" d="M40.76,26.54c-9.14,5.06-16.01,13.7-18.74,24.03l-10.31-26.27c-.4-1.01.45-2.07,1.52-1.91l27.53,4.15Z"/>
                <path class="cls-1" d="M29,84.46L1,75.82c-1.04-.32-1.34-1.65-.55-2.38l20.8-19.3c-.34,2.07-.52,4.2-.52,6.37,0,9.04,3.09,17.36,8.27,23.95Z"/>
                <path class="cls-1" d="M58.97,99.32l-24.55,16.73c-.9.61-2.12.03-2.2-1.06l-2.19-29.29c7,8.2,17.36,13.44,28.94,13.61Z"/>
                <path class="cls-1" d="M88.98,85.82l-2.18,29.14c-.08,1.08-1.3,1.67-2.2,1.06l-24.5-16.7c11.55-.16,21.88-5.36,28.88-13.5Z"/>
                <path class="cls-1" d="M118.08,75.73l-27.88,8.6c5.12-6.57,8.17-14.84,8.17-23.82,0-2.2-.19-4.36-.54-6.46l20.79,19.29c.8.74.49,2.07-.54,2.38Z"/>
                <path class="cls-1" d="M107.39,24.35l-10.3,26.26c-2.72-10.32-9.57-18.95-18.68-24.03l27.46-4.14c1.07-.16,1.92.9,1.52,1.91Z"/>
                <path class="cls-1" d="M59.55,107.7c-5.73,0-10.37,4.64-10.37,10.37h20.75c0-5.73-4.64-10.37-10.37-10.37Z"/>
                <path class="cls-1" d="M97.47,90.71c-3.57,4.48-2.84,11.01,1.64,14.58l12.93-16.22c-4.48-3.57-11.01-2.84-14.58,1.64Z"/>
                <path class="cls-1" d="M105.97,50.6c1.27,5.59,6.84,9.08,12.42,7.8l-4.62-20.23c-5.59,1.27-9.08,6.84-7.8,12.42Z"/>
                <path class="cls-1" d="M80.52,18.87c5.16,2.49,11.36.32,13.85-4.85l-18.69-9c-2.49,5.16-.32,11.36,4.85,13.85Z"/>
                <path class="cls-1" d="M38.11,18.87c5.16-2.49,7.33-8.69,4.84-13.85l-18.69,9c2.49,5.16,8.69,7.33,13.85,4.84Z"/>
                <path class="cls-1" d="M13.4,50.6c1.27-5.59-2.22-11.15-7.81-12.42L.98,58.41c5.59,1.27,11.15-2.22,12.42-7.81Z"/>
                <path class="cls-1" d="M8.5,89.07l12.94,16.22c4.48-3.57,5.21-10.1,1.64-14.58-3.57-4.48-10.1-5.21-14.58-1.64Z"/>
            </g>
            <g>
                <path class="cls-1" d="M177.83,30.15v29.7h34.85v-27.98h15.88v66.6h-15.88v-24.46h-34.85v24.46h-15.88V34.44l15.88-4.29Z"/>
                <path class="cls-1" d="M257.31,84.3h48.58l-4.29,14.16h-60.16V31.86h64.46l-4.29,14.16h-44.29v12.1h41.28v14.16h-41.28v12.02Z"/>
                <path class="cls-1" d="M331.38,31.86v52.44h46.86l-4.29,14.16h-58.45V31.86h15.88Z"/>
                <path class="cls-1" d="M400.99,31.86v66.6h-15.88V31.86h15.88Z"/>
                <path class="cls-1" d="M467.59,31.86h15.88v40.17c0,19.4-15.88,27.89-36.39,27.89s-35.28-9.1-35.28-27.89v-37.59l15.88-4.29v41.88c0,9.78,6.52,13.48,20.17,13.48s19.74-3.95,19.74-13.48V31.86Z"/>
                <path class="cls-1" d="M491.54,52.12c0-10.21,8.07-20.26,23.86-20.26h45.32l-4.29,14.16h-40.86c-4.89,0-7.3,3.09-7.3,6.09s2.49,6.01,7.3,6.01h23c15.53,0,23.6,10.04,23.6,20.26s-7.64,20.08-23.6,20.08h-47.03l4.29-14.16h42.57c4.81,0,7.3-2.83,7.3-5.92s-2.4-6.18-7.3-6.18h-23c-16.05,0-23.86-10.04-23.86-20.08Z"/>
            </g>
        </g>
    </g>
</svg>
