<svg width="161" height="35" viewBox="0 0 161 35" fill="none" xmlns="http://www.w3.org/2000/svg">
<path fill-rule="evenodd" clip-rule="evenodd" d="M9.34386 14.8132L20.4184 26.0507L31.3376 14.9166L40.3162 24.0357L29.8886 34.6274L27.1976 31.9666L35.0119 24.0099L31.3376 20.3157L20.3925 31.4499L9.34386 20.1866L5.69549 23.8807L13.6391 31.9407L10.9481 34.6016L0.391113 23.8807L9.34386 14.8132Z" fill="#384EF6"/>
<path fill-rule="evenodd" clip-rule="evenodd" d="M31.3894 20.1867L20.3149 8.94923L9.36974 20.0834L0.391113 10.9642L10.8187 0.372559L13.5097 3.03339L5.69549 10.9901L9.36974 14.7359L20.3149 3.60173L31.3894 14.8392L35.0377 11.1451L27.0941 3.03339L29.7851 0.372559L40.3421 11.0934L31.3894 20.1867Z" fill="#384EF6"/>
<path fill-rule="evenodd" clip-rule="evenodd" d="M18.6846 34.395V27.3167H22.3071V34.395H18.6846Z" fill="#384EF6"/>
<path fill-rule="evenodd" clip-rule="evenodd" d="M18.6846 7.68331V0.60498H22.3071V7.68331H18.6846Z" fill="#384EF6"/>
<path d="M52.5034 8.7168H48.9067V26.8001H52.5034V8.7168Z" fill="white"/>
<path d="M70.7709 13.4958C69.1408 13.4958 67.5624 14.1934 66.7862 15.7434C65.984 14.2192 64.4574 13.4958 62.6979 13.4958C61.1195 13.4958 59.9034 14.09 59.2824 15.175L58.8943 13.7542H55.634V26.8H59.153V19.4892C59.153 17.5517 60.1622 16.6217 61.637 16.6217C63.0343 16.6217 63.9917 17.5 63.9917 19.6442V26.8H67.3813V19.5667C67.433 17.5258 68.4939 16.6217 69.8653 16.6217C71.2884 16.6217 72.2199 17.5 72.2199 19.4633V26.8258H75.7648V18.7658C75.8166 15.1492 73.3843 13.4958 70.7709 13.4958Z" fill="white"/>
<path d="M93.748 13.4958C92.1178 13.4958 90.5395 14.1934 89.7632 15.7434C88.9611 14.2192 87.4345 13.4958 85.675 13.4958C84.0966 13.4958 82.8805 14.09 82.2595 15.175L81.8713 13.7542H78.6111V26.8H82.1301V19.4892C82.1301 17.5517 83.1392 16.6217 84.6141 16.6217C86.0113 16.6217 86.9687 17.5 86.9687 19.6442V26.8H90.3583V19.5667C90.4101 17.5258 91.471 16.6217 92.8423 16.6217C94.2655 16.6217 95.197 17.5 95.197 19.4633V26.8258H98.7418V18.7658C98.8195 15.1492 96.3613 13.4958 93.748 13.4958Z" fill="white"/>
<path d="M110.204 13.7283V20.8841C110.204 22.8216 109.299 23.9841 107.565 24.0099C105.909 24.0616 104.848 23.0799 104.848 21.0391V13.7283H101.51V21.5041C101.51 24.8366 103.451 27.0583 106.789 27.0583C108.341 27.0583 109.48 26.3608 110.153 25.3791L110.334 26.7999H113.568V13.7283H110.204Z" fill="white"/>
<path d="M123.892 13.4958C121.926 13.4958 120.606 14.2192 119.934 15.3042L119.727 13.7542H116.466V26.8H119.985V19.8767C119.985 17.7584 120.994 16.4925 122.857 16.4925C124.565 16.4925 125.6 17.6034 125.6 19.7475V26.8H129.145V19.05C129.145 15.6917 127.23 13.4958 123.892 13.4958Z" fill="white"/>
<path d="M144.566 20.0834C144.566 16.0792 141.979 13.4958 138.072 13.4958C134.165 13.4958 131.551 16.2083 131.551 20.29C131.551 24.3975 134.165 27.11 138.098 27.11C141.384 27.11 143.894 25.2759 144.463 22.5634H140.918C140.504 23.7 139.495 24.2684 138.201 24.2684C136.519 24.2684 135.148 23.1834 135.096 21.2459H144.566V20.0834V20.0834ZM138.072 16.2342C139.598 16.2342 140.892 17.1125 141.047 18.9209H135.122C135.277 17.1125 136.545 16.2342 138.072 16.2342Z" fill="white"/>
<path d="M145.938 13.7282V16.8024H147.956V26.7999H151.501V16.8024H154.503V13.7282H151.501V12.3849C151.501 11.4549 151.76 10.7574 153.183 10.7574H154.503V7.88989H152.407C149.095 7.88989 147.956 9.49156 147.956 12.0491V13.7282H145.938V13.7282Z" fill="white"/>
<path d="M156.831 11.7391H160.402L160.454 7.91577H156.883L156.831 11.7391ZM156.883 26.7999H160.402V13.7283H156.883V26.7999Z" fill="white"/>
</svg>
