<svg width="116" height="37" viewBox="0 0 116 37" fill="none" xmlns="http://www.w3.org/2000/svg">
    <g clip-path="url(#clip0_27269_144)">
        <path d="M48.8906 9H51.7656V20.25C51.7604 21.2812 51.5417 22.1693 51.1094 22.9141C50.6771 23.6536 50.0729 24.224 49.2969 24.625C48.526 25.0208 47.6276 25.2188 46.6016 25.2188C45.6641 25.2188 44.8203 25.0521 44.0703 24.7188C43.3255 24.3802 42.7344 23.8802 42.2969 23.2188C41.8594 22.5573 41.6406 21.7344 41.6406 20.75H44.5234C44.5286 21.1823 44.6224 21.5547 44.8047 21.8672C44.9922 22.1797 45.25 22.4193 45.5781 22.5859C45.9062 22.7526 46.2839 22.8359 46.7109 22.8359C47.1745 22.8359 47.5677 22.7396 47.8906 22.5469C48.2135 22.349 48.4583 22.0573 48.625 21.6719C48.7969 21.2865 48.8854 20.8125 48.8906 20.25V9Z" fill="white"/>
        <path d="M62.4336 19.9531V13H65.2617V25H62.5195V22.8672H62.3945C62.1237 23.5391 61.6784 24.0885 61.0586 24.5156C60.444 24.9427 59.6862 25.1562 58.7852 25.1562C57.9987 25.1562 57.3034 24.9818 56.6992 24.6328C56.1003 24.2786 55.6315 23.7656 55.293 23.0938C54.9544 22.4167 54.7852 21.599 54.7852 20.6406V13H57.6133V20.2031C57.6133 20.9635 57.8216 21.5677 58.2383 22.0156C58.6549 22.4635 59.2018 22.6875 59.8789 22.6875C60.2956 22.6875 60.6992 22.5859 61.0898 22.3828C61.4805 22.1797 61.8008 21.8776 62.0508 21.4766C62.306 21.0703 62.4336 20.5625 62.4336 19.9531Z" fill="white"/>
        <path d="M68.1699 29.5V13H70.9512V14.9844H71.1152C71.2611 14.6927 71.4668 14.3828 71.7324 14.0547C71.998 13.7214 72.3574 13.4375 72.8105 13.2031C73.2637 12.9635 73.8418 12.8438 74.5449 12.8438C75.472 12.8438 76.3079 13.0807 77.0527 13.5547C77.8027 14.0234 78.3965 14.7188 78.834 15.6406C79.2767 16.5573 79.498 17.6823 79.498 19.0156C79.498 20.3333 79.2819 21.4531 78.8496 22.375C78.4173 23.2969 77.8288 24 77.084 24.4844C76.3392 24.9688 75.4954 25.2108 74.5527 25.2108C73.8652 25.2108 73.2949 25.0964 72.8418 24.8672C72.3887 24.638 72.0241 24.362 71.748 24.0391C71.4772 23.7109 71.2663 23.401 71.1152 23.1094H70.998V29.5H68.1699ZM70.9434 19C70.9434 19.776 71.0527 20.4557 71.2715 21.0391C71.4954 21.6224 71.8158 22.0781 72.2324 22.4062C72.6543 22.7292 73.1647 22.8906 73.7637 22.8906C74.3887 22.8906 74.9121 22.724 75.334 22.3906C75.7559 22.0521 76.0736 21.591 76.2871 21.0077C76.5059 20.4192 76.6152 19.75 76.6152 19C76.6152 18.2552 76.5085 17.5938 76.2949 17.0156C76.0814 16.4375 75.7637 15.9844 75.3418 15.6562C74.9199 15.3281 74.3939 15.1641 73.7637 15.1641C73.1595 15.1641 72.6465 15.3229 72.2246 15.6406C71.8027 15.9583 71.4824 16.4036 71.2637 16.9766C71.0501 17.5495 70.9434 18.224 70.9434 19Z" fill="white"/>
        <path d="M81.9199 25V13H84.748V25H81.9199ZM83.3418 11.2969C82.8939 11.2969 82.5085 11.1484 82.1855 10.8516C81.8626 10.5495 81.7012 10.1875 81.7012 9.76562C81.7012 9.33854 81.8626 8.97656 82.1855 8.67969C82.5085 8.3776 82.8939 8.22656 83.3418 8.22656C83.7949 8.22656 84.1803 8.3776 84.498 8.67969C84.821 8.97656 84.9824 9.33854 84.9824 9.76562C84.9824 10.1875 84.821 10.5495 84.498 10.8516C84.1803 11.1484 83.7949 11.2969 83.3418 11.2969Z" fill="white"/>
        <path d="M93.6484 13V15.1875H86.75V13H93.6484ZM88.4531 10.125H91.2812V21.3906C91.2812 21.7708 91.3385 22.0625 91.4531 22.2656C91.5729 22.4635 91.7292 22.599 91.9219 22.6719C92.1146 22.7448 92.3281 22.7812 92.5625 22.7812C92.7396 22.7812 92.901 22.7682 93.0469 22.7422C93.1979 22.7161 93.3125 22.6927 93.3906 22.6719L93.8672 24.8828C93.7161 24.9349 93.5 24.9922 93.2188 25.0547C92.9427 25.1172 92.6042 25.1536 92.2031 25.1641C91.4948 25.1849 90.8568 25.0781 90.2891 24.8438C89.7214 24.6042 89.2708 24.2344 88.9375 23.7344C88.6094 23.2344 88.4479 22.6094 88.4531 21.8594V10.125Z" fill="white"/>
        <path d="M101.197 25.2344C99.9941 25.2344 98.9551 24.9844 98.0801 24.4844C97.2103 23.9792 96.541 23.2656 96.0723 22.3438C95.6035 21.4166 95.3691 20.3254 95.3691 19.0702C95.3691 17.8358 95.6035 16.7526 96.0723 15.8203C96.5462 14.8828 97.2077 14.1536 98.0566 13.6328C98.9056 13.1068 99.903 12.8438 101.049 12.8438C101.788 12.8438 102.486 12.9635 103.143 13.2031C103.804 13.4375 104.387 13.8021 104.893 14.2969C105.403 14.7917 105.804 15.4219 106.096 16.1875C106.387 16.9479 106.533 17.8542 106.533 18.9062V19.7733H96.6973V17.8672H103.822C103.817 17.3255 103.7 16.8437 103.471 16.4219C103.242 15.9948 102.921 15.6589 102.51 15.4141C102.104 15.1693 101.63 15.0469 101.088 15.0469C100.51 15.0469 100.002 15.1874 99.5645 15.4688C99.127 15.7447 98.7858 16.1094 98.541 16.5625C98.3014 17.0104 98.179 17.5026 98.1738 18.0391V19.7031C98.1738 20.401 98.3014 21 98.5566 21.5C98.8118 21.9948 99.1686 22.375 99.627 22.6406C100.085 22.901 100.622 23.0312 101.236 23.0312C101.648 23.0312 102.02 22.974 102.354 22.8594C102.687 22.7396 102.976 22.565 103.221 22.3358C103.465 22.1067 103.65 21.8229 103.775 21.4844L106.416 21.7812C106.249 22.4792 105.932 23.0885 105.463 23.6094C104.999 24.125 104.406 24.526 103.682 24.8125C102.958 25.0938 102.13 25.2344 101.197 25.2344Z" fill="white"/>
        <path d="M108.926 25V13H111.668V15H111.793C112.012 14.3073 112.387 13.7734 112.918 13.3984C113.454 13.0182 114.066 12.8281 114.754 12.8281C114.91 12.8281 115.085 12.8359 115.277 12.8516C115.475 12.862 115.639 12.8802 115.77 12.9062V15.5078C115.65 15.4661 115.46 15.4297 115.199 15.3984C114.944 15.362 114.697 15.3438 114.457 15.3438C113.941 15.3438 113.478 15.4557 113.066 15.6797C112.66 15.8984 112.34 16.2031 112.105 16.5938C111.871 16.9844 111.754 17.4349 111.754 17.9453V25H108.926Z" fill="white"/>
        <path d="M3.19116 25.9836C4.58698 27.9251 6.37745 29.5496 8.44512 30.7506C10.5128 31.9517 12.811 32.7021 15.189 32.9526C13.9656 31.1115 12.1872 29.4177 9.96702 28.1281C7.74685 26.8386 5.39565 26.1342 3.19116 25.9836Z" fill="url(#paint0_linear_27269_144)"/>
        <path d="M12.9503 22.9936C8.67291 20.5086 4.04331 19.8753 0.730713 20.994C1.0505 22.051 1.47226 23.0743 1.99002 24.0496C4.86811 23.983 8.01051 24.7647 10.9345 26.463C13.8586 28.1613 16.095 30.5052 17.4635 33.0389C18.5678 33.005 19.6663 32.8644 20.7436 32.619C20.0739 29.1877 17.2266 25.4792 12.9503 22.9936Z" fill="url(#paint1_linear_27269_144)"/>
        <path d="M33.3332 12.9067C32.7894 10.6947 31.8054 8.6149 30.44 6.7916C29.0745 4.96827 27.3557 3.4388 25.386 2.2945C23.4164 1.1502 21.2364 0.414537 18.9761 0.131442C16.7159 -0.151653 14.4217 0.0236221 12.2307 0.646803C15.8911 1.09476 19.954 2.46885 23.9385 4.78363C27.9231 7.09843 31.1321 9.94687 33.3332 12.9067Z" fill="url(#paint2_linear_27269_144)"/>
        <path d="M28.0078 21.0192C26.1343 17.9076 22.9247 14.9282 18.9709 12.6313C15.0172 10.3344 10.84 9.02248 7.21217 8.93568C4.02051 8.86008 1.62509 9.78791 0.641837 11.4806C0.636237 11.4907 0.628397 11.5002 0.622237 11.5103C0.533767 11.8278 0.457614 12.1458 0.388184 12.465C1.76115 11.923 3.35194 11.6211 5.12081 11.5875C9.05437 11.5136 13.4566 12.7718 17.519 15.132C21.5814 17.4921 24.8576 20.6944 26.7412 24.147C27.5856 25.7025 28.1125 27.234 28.3214 28.6971C28.5644 28.4799 28.8029 28.2553 29.0342 28.0218C29.0404 28.0112 29.0443 28 29.0504 27.9888C30.0337 26.2944 29.6535 23.7545 28.0078 21.0192Z" fill="url(#paint3_linear_27269_144)"/>
        <path d="M15.9628 17.8085C9.90817 14.291 3.21742 13.74 0 16.1948C0.0063197 16.9631 0.0650623 17.7301 0.175821 18.4905C1.12227 18.2036 2.09773 18.0229 3.08416 17.9518C6.67953 17.6814 10.6434 18.6831 14.2404 20.774C17.8375 22.8648 20.673 25.8134 22.2196 29.0684C22.6471 29.9601 22.9731 30.8969 23.1916 31.8613C23.9072 31.5808 24.6029 31.2521 25.2741 30.8775C25.8127 26.8661 22.0191 21.3266 15.9628 17.8085Z" fill="url(#paint4_linear_27269_144)"/>
        <path d="M31.122 15.8111C29.2271 12.7029 25.9896 9.71503 22.0078 7.40303C18.0261 5.09103 13.8327 3.75837 10.1931 3.65143C7.41861 3.57137 5.26954 4.24383 4.15527 5.51433C8.78204 4.73043 14.8848 6.04797 20.8 9.48433C26.7152 12.9207 30.8846 17.5705 32.4938 21.9778C33.0454 20.3814 32.5655 18.1814 31.122 15.8111Z" fill="url(#paint5_linear_27269_144)"/>
    </g>
    <defs>
        <linearGradient id="paint0_linear_27269_144" x1="27.0001" y1="4.33336" x2="5.00009" y2="33" gradientUnits="userSpaceOnUse">
            <stop stop-color="#F9A43A"/>
            <stop offset="0.25" stop-color="#FFC45E"/>
            <stop offset="0.53125" stop-color="#93EEEF"/>
            <stop offset="0.760417" stop-color="#81F4FE"/>
            <stop offset="1" stop-color="#3BDBFB"/>
        </linearGradient>
        <linearGradient id="paint1_linear_27269_144" x1="27.0001" y1="4.33342" x2="5.00008" y2="33.0001" gradientUnits="userSpaceOnUse">
            <stop stop-color="#F9A43A"/>
            <stop offset="0.25" stop-color="#FFC45E"/>
            <stop offset="0.53125" stop-color="#93EEEF"/>
            <stop offset="0.760417" stop-color="#81F4FE"/>
            <stop offset="1" stop-color="#3BDBFB"/>
        </linearGradient>
        <linearGradient id="paint2_linear_27269_144" x1="26.9999" y1="4.33333" x2="4.99991" y2="33" gradientUnits="userSpaceOnUse">
            <stop stop-color="#F9A43A"/>
            <stop offset="0.25" stop-color="#FFC45E"/>
            <stop offset="0.53125" stop-color="#93EEEF"/>
            <stop offset="0.760417" stop-color="#81F4FE"/>
            <stop offset="1" stop-color="#3BDBFB"/>
        </linearGradient>
        <linearGradient id="paint3_linear_27269_144" x1="27.0001" y1="4.33332" x2="5.00011" y2="33" gradientUnits="userSpaceOnUse">
            <stop stop-color="#F9A43A"/>
            <stop offset="0.25" stop-color="#FFC45E"/>
            <stop offset="0.53125" stop-color="#93EEEF"/>
            <stop offset="0.760417" stop-color="#81F4FE"/>
            <stop offset="1" stop-color="#3BDBFB"/>
        </linearGradient>
        <linearGradient id="paint4_linear_27269_144" x1="27" y1="4.33333" x2="5" y2="33" gradientUnits="userSpaceOnUse">
            <stop stop-color="#F9A43A"/>
            <stop offset="0.25" stop-color="#FFC45E"/>
            <stop offset="0.53125" stop-color="#93EEEF"/>
            <stop offset="0.760417" stop-color="#81F4FE"/>
            <stop offset="1" stop-color="#3BDBFB"/>
        </linearGradient>
        <linearGradient id="paint5_linear_27269_144" x1="27" y1="4.3332" x2="5.00004" y2="32.9999" gradientUnits="userSpaceOnUse">
            <stop stop-color="#F9A43A"/>
            <stop offset="0.25" stop-color="#FFC45E"/>
            <stop offset="0.53125" stop-color="#93EEEF"/>
            <stop offset="0.760417" stop-color="#81F4FE"/>
            <stop offset="1" stop-color="#3BDBFB"/>
        </linearGradient>
        <clipPath id="clip0_27269_144">
            <rect width="116" height="37" fill="white"/>
        </clipPath>
    </defs>
</svg>
