<svg width="158" height="33" viewBox="0 0 158 33" fill="none" xmlns="http://www.w3.org/2000/svg">
    <path d="M156.395 8.11994C155.495 8.11994 154.805 7.45994 154.805 6.52994C154.805 5.59994 155.495 4.93994 156.395 4.93994C157.295 4.93994 157.985 5.59994 157.985 6.52994C157.985 7.45994 157.295 8.11994 156.395 8.11994ZM155.135 25.9999V10.6999H157.595V25.9999H155.135Z" fill="white"/>
    <path d="M143.818 12.95V10.7H146.578V8.99C146.578 6.29 147.718 5 150.568 5H153.358V7.25H150.718C149.488 7.25 149.038 7.76 149.038 8.93V10.7H153.358V12.95H149.038V26H146.578V12.95H143.818Z" fill="white"/>
    <path d="M136.122 10.5199C139.572 10.5199 142.302 12.4099 142.302 17.4799V25.9999H139.842V17.6299C139.842 14.4499 138.372 12.7699 135.702 12.7699C132.822 12.7699 131.082 14.8999 131.082 18.3499V25.9999H128.622V10.6999H130.752L131.082 12.7699C131.982 11.5999 133.542 10.5199 136.122 10.5199Z" fill="white"/>
    <path d="M124.051 8.11994C123.151 8.11994 122.461 7.45994 122.461 6.52994C122.461 5.59994 123.151 4.93994 124.051 4.93994C124.951 4.93994 125.641 5.59994 125.641 6.52994C125.641 7.45994 124.951 8.11994 124.051 8.11994ZM122.791 25.9999V10.6999H125.251V25.9999H122.791Z" fill="white"/>
    <path d="M116.98 13.3399L117.31 10.6999H119.44V25.2499C119.44 29.6599 117.1 32.1799 111.85 32.1799C107.95 32.1799 105.22 30.3499 104.83 26.9899H107.35C107.77 28.9099 109.48 29.9899 112.03 29.9899C115.24 29.9899 116.98 28.4899 116.98 25.1599V23.3599C115.96 25.0999 114.31 26.1799 111.73 26.1799C107.5 26.1799 104.38 23.3299 104.38 18.3499C104.38 13.6699 107.5 10.5199 111.73 10.5199C114.31 10.5199 116.02 11.6299 116.98 13.3399ZM111.97 23.9899C114.97 23.9899 117.01 21.6799 117.01 18.4099C117.01 15.0499 114.97 12.7099 111.97 12.7099C108.94 12.7099 106.9 15.0199 106.9 18.3499C106.9 21.6799 108.94 23.9899 111.97 23.9899Z" fill="white"/>
    <path d="M102.977 10.7H103.667V13.1H102.437C99.227 13.1 98.357 15.77 98.357 18.2V26H95.897V10.7H98.027L98.357 13.01C99.077 11.84 100.247 10.7 102.977 10.7Z" fill="white"/>
    <path d="M93.226 23.7499H94.006V25.9999H92.656C90.616 25.9999 89.926 25.1299 89.896 23.6299C88.936 25.0099 87.406 26.1799 84.766 26.1799C81.406 26.1799 79.126 24.4999 79.126 21.7099C79.126 18.6499 81.256 16.9399 85.276 16.9399H89.776V15.8899C89.776 13.9099 88.366 12.7099 85.966 12.7099C83.806 12.7099 82.366 13.7299 82.066 15.2899H79.606C79.966 12.2899 82.396 10.5199 86.086 10.5199C89.986 10.5199 92.236 12.4699 92.236 16.0399V22.7299C92.236 23.5399 92.536 23.7499 93.226 23.7499ZM89.776 19.7599V19.0099H85.036C82.846 19.0099 81.616 19.8199 81.616 21.5599C81.616 23.0599 82.906 24.0799 84.946 24.0799C88.006 24.0799 89.776 22.3099 89.776 19.7599Z" fill="white"/>
    <path d="M70.7502 10.5199C73.9302 10.5199 76.5402 12.3499 76.5402 17.1799V25.9999H74.0802V17.3299C74.0802 14.3299 72.7602 12.7699 70.4502 12.7699C67.9002 12.7699 66.3402 14.6899 66.3402 17.8099V25.9999H63.8802V17.3299C63.8802 14.3299 62.5302 12.7699 60.1902 12.7699C57.6702 12.7699 56.1402 14.8699 56.1402 17.9299V25.9999H53.6802V10.6999H55.8102L56.1402 12.7999C56.9502 11.6899 58.2402 10.5199 60.6102 10.5199C62.7402 10.5199 64.5702 11.4799 65.4402 13.4299C66.3702 11.7799 68.0202 10.5199 70.7502 10.5199Z" fill="white"/>
    <g clip-path="url(#clip0_15079_57)">
        <mask id="mask0_15079_57" style="mask-type:luminance" maskUnits="userSpaceOnUse" x="0" y="0" width="36" height="32">
            <path d="M36 0H0V32H36V0Z" fill="white"/>
        </mask>
        <g mask="url(#mask0_15079_57)">
            <path fill-rule="evenodd" clip-rule="evenodd" d="M18.5904 0.0778083C18.8762 0.0527821 19.1636 0.0276133 19.4524 0L19.4314 16.0206H19.0028C18.4638 16.0814 17.9456 16.2608 17.4865 16.5454C15.0276 18.3726 14.1539 21.0608 13.2518 23.8361L13.2303 23.9023C12.4567 26.4271 10.876 28.639 8.72308 30.2095C6.75451 31.5372 4.60627 31.7237 2.35047 31.9196C2.05385 31.9454 1.75538 31.9713 1.4552 32H0.252441V16.0103H0.87999C1.76914 15.9878 2.63859 15.7484 3.41061 15.3138C4.18262 14.8792 4.83309 14.263 5.30349 13.5202C6.35584 11.8358 7.15207 10.009 7.66686 8.09773C8.44107 5.57327 10.0262 3.3638 12.1845 1.80064C14.1536 0.466372 16.3206 0.27659 18.5904 0.0778083ZM19.4524 15.8118H35.6406V32H19.4524V15.8118Z" fill="#C4C6BF"/>
        </g>
    </g>
    <defs>
        <clipPath id="clip0_15079_57">
            <rect width="36" height="32" fill="white"/>
        </clipPath>
    </defs>
</svg>
