<svg width="89" height="89" viewBox="0 0 89 89" fill="none" xmlns="http://www.w3.org/2000/svg">
  <path d="M42.6091 61.4864H36.1026L21.3702 39.2251V61.4864H14.8638V29.0008H21.3702L36.1026 51.3085V29.0008H42.6091V61.4864Z" fill="white"/>
  <path d="M47.3204 48.52C47.3204 45.9175 47.8316 43.6092 48.8541 41.5953C49.9075 39.5815 51.3327 38.0323 53.1297 36.9479C54.9267 35.8635 56.9251 35.3213 59.1249 35.3213C60.798 35.3213 62.3936 35.6931 63.9118 36.4367C65.43 37.1493 66.6383 38.1098 67.5368 39.3181V27.0953H74.1362V61.4864H67.5368V57.6755C66.7313 58.9458 65.6004 59.9683 64.1442 60.7428C62.688 61.5174 60.9994 61.9047 59.0785 61.9047C56.9096 61.9047 54.9267 61.347 53.1297 60.2316C51.3327 59.1162 49.9075 57.5516 48.8541 55.5377C47.8316 53.4928 47.3204 51.1536 47.3204 48.52V48.52ZM67.5833 48.613C67.5833 47.0329 67.2735 45.6851 66.6538 44.5697C66.0341 43.4233 65.1976 42.5558 64.1442 41.9671C63.0907 41.3475 61.9599 41.0377 60.7515 41.0377C59.5432 41.0377 58.4278 41.332 57.4054 41.9207C56.3829 42.5093 55.5464 43.3769 54.8957 44.5232C54.2761 45.6386 53.9663 46.9709 53.9663 48.52C53.9663 50.0692 54.2761 51.4324 54.8957 52.6098C55.5464 53.7562 56.3829 54.6392 57.4054 55.2588C58.4588 55.8785 59.5742 56.1883 60.7515 56.1883C61.9599 56.1883 63.0907 55.894 64.1442 55.3053C65.1976 54.6857 66.0341 53.8181 66.6538 52.7027C67.2735 51.5564 67.5833 50.1931 67.5833 48.613Z" fill="white"/>
  <path d="M3.23328 3.23328H85.7667V85.7667H3.23328V3.23328Z" stroke="white" stroke-width="4.582"/>
</svg>
