<svg width="176" height="25" viewBox="0 0 176 25" fill="none" xmlns="http://www.w3.org/2000/svg" class="mr-20"><path fill-rule="evenodd" clip-rule="evenodd" d="M12.4608 25C19.3424 25 24.9216 19.4072 24.9216 12.5088C24.9392 5.5928 19.3424 0 12.4608 0C5.5792 0 0 5.5928 0 12.4912C0 19.3896 5.5792 25 12.4608 25ZM7.6384 7.18066L12.3024 11.856V7.42766C12.3024 7.39238 12.3024 7.33945 12.32 7.30416C12.3376 7.26888 12.3552 7.23359 12.3904 7.19831C12.4256 7.16302 12.4608 7.14538 12.496 7.12774C12.5312 7.11009 12.584 7.11009 12.6192 7.11009H17.864H17.8816C17.8816 7.11009 17.8816 7.11009 17.8992 7.11009C17.9344 7.11009 17.9872 7.12774 18.0224 7.12774C18.0576 7.14538 18.0928 7.16302 18.128 7.19831C18.1632 7.23359 18.1808 7.26888 18.1984 7.30416C18.216 7.33945 18.216 7.39238 18.216 7.42766V12.65C18.216 12.6676 18.216 12.6676 18.216 12.6853V17.9428C18.216 17.9958 18.216 18.0311 18.1984 18.0663C18.1808 18.1016 18.1632 18.1369 18.128 18.1722C18.0928 18.2075 18.0576 18.2251 18.0224 18.2428C17.9872 18.2604 17.9344 18.2604 17.8992 18.2604C17.8464 18.2604 17.8112 18.2604 17.7584 18.2428C17.7232 18.2251 17.6704 18.2075 17.6528 18.1722L12.9888 13.4968V17.9428C12.9888 17.9781 12.9888 18.0311 12.9712 18.0663C12.9536 18.1016 12.936 18.1369 12.9008 18.1722C12.8656 18.2075 12.8304 18.2251 12.7952 18.2428C12.76 18.2604 12.7072 18.2604 12.672 18.2604H7.4096H7.392C7.3568 18.2604 7.304 18.2428 7.2688 18.2428C7.2336 18.2251 7.1984 18.2075 7.1632 18.1722C7.128 18.1369 7.1104 18.1016 7.0928 18.0663C7.0752 18.0311 7.0752 17.9781 7.0752 17.9428V12.6853C7.0752 12.65 7.0752 12.6323 7.0928 12.597V7.42766C7.0928 7.35709 7.1104 7.30416 7.1456 7.23359C7.1808 7.18066 7.2336 7.12773 7.304 7.11009C7.3568 7.09245 7.4272 7.07481 7.4976 7.09245C7.5328 7.11009 7.6032 7.14538 7.6384 7.18066Z" fill="#DF42AB"></path><path d="M46.552 2.15234H49.456V22.1594H46.5696L34.3904 5.96321V22.1594H31.504V2.15234H35.024L46.552 17.2017V2.15234Z" fill="#DF42AB"></path><path d="M52.0081 22.1594V2.15234H66.7921V4.99285H54.9121V10.4269H65.9121V13.2674H54.9121V19.3365H66.7921V22.177H52.0081V22.1594Z" fill="#DF42AB"></path><path d="M67.3904 12.156C67.3904 6.4573 71.5616 1.729 77.7568 1.729C84.0048 1.729 88.1584 6.43966 88.1584 12.156C88.1584 17.8899 83.9872 22.5476 77.7568 22.5476C71.5792 22.5476 67.3904 17.8899 67.3904 12.156ZM85.2368 12.156C85.2368 8.00988 82.28 4.56951 77.7568 4.56951C73.2864 4.56951 70.312 8.00988 70.312 12.156C70.312 16.2844 73.2688 19.7424 77.7568 19.7424C82.3152 19.7424 85.2368 16.2668 85.2368 12.156Z" fill="#DF42AB"></path><path d="M105.037 2.15234H107.923V22.1594H105.037L92.8576 5.96321V22.1594H89.9712V2.15234H93.5088L105.037 17.2017V2.15234Z" fill="#DF42AB"></path><path d="M116.917 22.1594V2.15234H131.701V4.99285H119.821V10.4269H130.821V13.2674H119.821V19.3365H131.701V22.177H116.917V22.1594Z" fill="#DF42AB"></path><path d="M150.04 2.15234H153.19L144.602 22.1594H141.381L132.792 2.15234H136.013L143.07 18.6661L150.04 2.15234Z" fill="#DF42AB"></path><path d="M176 22.1594H173.114V6.63364L166.408 22.1594H163.909L157.256 6.72186V22.1594H154.37V2.15234H158.365L165.246 18.1015L172.093 2.15234H176V22.1594Z" fill="#DF42AB"></path></svg>
