<svg width="843" height="202" viewBox="0 0 843 202" fill="none" xmlns="http://www.w3.org/2000/svg">
    <path d="M675.777 111.278H689.44V132.99H675.777V111.278ZM683.103 91.7129C670.05 91.7129 642.515 71.1583 642.515 71.1583V86.2699C642.515 86.2699 667.132 105.201 683.103 105.201C699.165 105.201 722.863 86.3392 722.863 86.3392V71C722.863 71 696.127 91.7129 683.103 91.7129ZM297.954 108.24L355.794 132.99V118.809L316.775 103.43L355.794 88.1403V73.9689L297.954 98.4621V108.24ZM420.301 73.9689H404.889L367.298 132.98H383.28L412.565 87.883L441.849 132.98H457.831L420.301 73.9689ZM609.822 73.9689H594.41L556.809 133H572.791L602.086 87.883L631.38 133H647.362L609.822 73.9689ZM551.132 73.9689L526.195 116.958L515.281 97.7199L529.304 73.9689H513.522L507.595 84.1818L501.808 73.9689H485.407L499.559 98.0366L488.575 116.958L464.198 73.9689H447.796L482.518 132.99H494.452L507.315 111.208L520.138 132.99H532.062L566.914 73.9689H551.132ZM95.6401 132.99H170.131V73.9689H95.6401V132.99ZM156.498 87.4871L156.478 119.462H109.313V87.4278L156.498 87.4871ZM190.86 132.951H260.364V119.432H204.533V87.4476H260.364V73.9392H190.86V132.951ZM278.155 73.9689V132.99H291.828L291.808 73.9689H278.155ZM51.8829 111.03C51.8829 111.03 52.5526 123.361 63.8467 132.97H82.6069C82.6069 132.97 68.6742 124.786 65.8956 111.03H74.3512V73.9689H0V132.99H13.6629V111.03H51.8829ZM13.6629 87.4871L60.8382 87.4773V98.9965H13.6629V87.4871Z" fill="white"/>
    <path d="M843 0L799.693 29.4295V39.6797L843 69V51.7078L817.084 34.4553L843 17.2922V0ZM750.188 17.2922L776.115 34.4553L750.188 51.7078V69L793.506 39.6797V29.4295L750.188 0V17.2922Z" fill="#8BCF2B"/>
</svg>
