<svg width="240" height="81" viewBox="0 0 240 81" fill="none" xmlns="http://www.w3.org/2000/svg">
    <path d="M109.28 38.7227C109.026 38.3635 108.743 38.0537 108.417 37.7932C108.092 37.5328 107.752 37.3216 107.392 37.1526C107.031 36.9836 106.67 36.857 106.309 36.7795C105.948 36.702 105.602 36.6528 105.276 36.6458H98.3225C97.7495 36.6458 97.3037 36.4768 96.9854 36.1458C96.667 35.8079 96.5044 35.3572 96.5044 34.78C96.5044 34.2098 96.667 33.752 96.9854 33.4071C97.3037 33.0621 97.7495 32.8861 98.3225 32.8861H108.58V29.8868H98.3225C97.8343 29.8868 97.3109 29.9714 96.7448 30.1474C96.179 30.3234 95.6553 30.5978 95.1743 30.9921C94.6933 31.3793 94.29 31.8863 93.9717 32.5059C93.6534 33.1254 93.4907 33.8858 93.4907 34.7869C93.4907 35.6882 93.6534 36.4486 93.9717 37.0681C94.29 37.6877 94.6933 38.1946 95.1743 38.5818C95.6553 38.9692 96.179 39.2436 96.7448 39.4196C97.3109 39.5957 97.8343 39.6801 98.3225 39.6801H105.255C105.531 39.6801 105.786 39.7295 106.012 39.821C106.239 39.9126 106.437 40.0464 106.592 40.2153C106.748 40.3842 106.875 40.5814 106.96 40.8137C107.045 41.0461 107.087 41.2996 107.087 41.5741C107.087 42.1444 106.925 42.595 106.606 42.933C106.288 43.2709 105.835 43.4398 105.255 43.4398H93.6252V46.439H105.255C105.581 46.439 105.927 46.4039 106.295 46.3266C106.663 46.2491 107.024 46.1294 107.377 45.9674C107.731 45.8055 108.078 45.6014 108.41 45.3478C108.743 45.0944 109.033 44.7846 109.28 44.4255C109.528 44.0664 109.726 43.644 109.875 43.1723C110.023 42.7006 110.101 42.1655 110.101 41.5741C110.101 40.9827 110.03 40.4546 109.882 39.9828C109.733 39.5041 109.535 39.0888 109.28 38.7227Z" fill="white"/>
    <path d="M128.084 31.6106C127.469 30.9981 126.732 30.5193 125.884 30.1744C125.035 29.8293 124.115 29.6533 123.118 29.6533H119.036C118.038 29.6533 117.111 29.8293 116.263 30.1744C115.414 30.5193 114.678 30.9981 114.063 31.6106C113.447 32.2231 112.959 32.9555 112.605 33.8002C112.252 34.6452 112.075 35.5746 112.075 36.5743V39.7354C112.075 40.7422 112.252 41.6717 112.605 42.5165C112.959 43.3614 113.44 44.0936 114.063 44.7061C114.678 45.3186 115.414 45.7974 116.263 46.1424C117.111 46.4874 118.038 46.6564 119.036 46.6564H123.118C124.115 46.6564 125.035 46.4874 125.884 46.1424C126.732 45.7974 127.461 45.3186 128.084 44.7061C128.699 44.0936 129.187 43.3614 129.534 42.5165C129.881 41.6717 130.057 40.7422 130.057 39.7354V36.5743C130.057 35.5746 129.881 34.6523 129.534 33.8002C129.187 32.9484 128.699 32.2231 128.084 31.6106ZM127.036 39.7425C127.036 40.334 126.945 40.8689 126.754 41.3548C126.563 41.8335 126.294 42.2491 125.947 42.5869C125.601 42.9318 125.183 43.1925 124.702 43.3825C124.221 43.5725 123.684 43.6641 123.096 43.6641H119.036C118.449 43.6641 117.911 43.5725 117.43 43.3825C116.949 43.1925 116.532 42.9318 116.185 42.5869C115.838 42.242 115.569 41.8335 115.378 41.3548C115.187 40.876 115.095 40.3409 115.095 39.7425V36.5814C115.095 35.9899 115.187 35.4548 115.378 34.9689C115.569 34.4902 115.838 34.0749 116.185 33.7369C116.532 33.392 116.949 33.1315 117.43 32.9413C117.911 32.7512 118.449 32.6596 119.036 32.6596H123.118C123.698 32.6596 124.228 32.7512 124.709 32.9413C125.19 33.1315 125.608 33.392 125.947 33.7369C126.294 34.082 126.556 34.4902 126.747 34.9689C126.937 35.4478 127.03 35.9828 127.03 36.5814V39.7425H127.036Z" fill="white"/>
    <path d="M136.043 29.888H133.029V44.9196C133.029 45.1379 133.065 45.3351 133.143 45.5181C133.221 45.7012 133.327 45.8631 133.462 45.9969C133.596 46.1306 133.758 46.2362 133.942 46.3137C134.126 46.3912 134.331 46.4263 134.543 46.4263H148.296V43.4271H136.043V29.888Z" fill="white"/>
    <path d="M151.429 30C151.245 30.0774 151.081 30.1831 150.947 30.324C150.813 30.4647 150.707 30.6267 150.629 30.8098C150.551 30.9927 150.516 31.1899 150.516 31.4011V46.4328H153.53V39.6739H165.606V36.6534H153.53V32.8938H165.612V29.8944H152.036C151.817 29.8875 151.613 29.9226 151.429 30Z" fill="white"/>
    <path d="M171.06 29.888H168.047V44.9196C168.047 45.1379 168.083 45.3351 168.16 45.5181C168.239 45.7012 168.345 45.8631 168.48 45.9969C168.614 46.1306 168.776 46.2362 168.96 46.3137C169.143 46.3912 169.35 46.4263 169.563 46.4263H183.313V43.4271H171.06V29.888Z" fill="white"/>
    <path d="M201.396 30.3246C201.255 30.1837 201.092 30.0781 200.908 30.0006C200.724 29.9233 200.526 29.888 200.314 29.888H193.522C192.326 29.888 191.217 30.0922 190.205 30.5007C189.193 30.9089 188.316 31.4792 187.573 32.2115C186.83 32.9436 186.251 33.8166 185.833 34.8305C185.416 35.8443 185.209 36.9567 185.209 38.1677V46.4404H188.224V42.371H198.822V46.4334H201.835V31.4017C201.835 31.1976 201.799 31.0004 201.722 30.8103C201.643 30.6273 201.538 30.4654 201.396 30.3246ZM188.23 39.3717V38.1607C188.23 37.3228 188.351 36.6118 188.585 36.0203C188.819 35.429 189.123 34.9431 189.483 34.5489C189.843 34.1546 190.247 33.8519 190.678 33.6265C191.11 33.4012 191.52 33.2394 191.917 33.1337C192.306 33.0281 192.652 32.9577 192.95 32.9296C193.247 32.9014 193.444 32.8873 193.536 32.8873H198.836V39.3717H188.23Z" fill="white"/>
    <path d="M217.56 40.8925C217.984 40.808 218.401 40.6742 218.812 40.4841C219.221 40.2939 219.618 40.0546 220 39.766C220.382 39.4702 220.715 39.1253 221.004 38.71C221.295 38.3015 221.528 37.8228 221.698 37.2876C221.867 36.7527 221.953 36.1402 221.953 35.45V33.535C221.953 33.169 221.888 32.7676 221.76 32.3452C221.635 31.9228 221.422 31.5285 221.133 31.1624C220.842 30.7963 220.467 30.4936 220 30.2541C219.533 30.0148 218.967 29.888 218.294 29.888H206.856C206.638 29.888 206.438 29.9233 206.255 30.0006C206.071 30.0781 205.907 30.1837 205.774 30.3246C205.639 30.4654 205.533 30.6273 205.456 30.8103C205.378 30.9935 205.341 31.1905 205.341 31.4017V46.4334H208.356V41.0191H211.73L218.012 46.4334H222.673L216.378 41.0191C216.746 41.0191 217.143 40.9769 217.56 40.8925ZM208.348 32.8873H218.294C218.359 32.8873 218.423 32.8943 218.501 32.9014C218.571 32.9085 218.642 32.9367 218.705 32.9789C218.77 33.0211 218.826 33.0845 218.868 33.1761C218.911 33.2674 218.932 33.3942 218.932 33.5633V35.4571C218.932 35.8514 218.868 36.1963 218.747 36.499C218.628 36.8018 218.45 37.0624 218.218 37.2806C217.991 37.4989 217.722 37.6679 217.404 37.7946C217.092 37.9213 216.746 37.9988 216.364 38.0339H208.348V32.8873Z" fill="white"/>
    <path d="M239.999 32.8873V29.888H226.422C226.204 29.888 226.004 29.9233 225.822 30.0006C225.638 30.0781 225.476 30.1837 225.341 30.3246C225.207 30.4654 225.1 30.6273 225.022 30.8103C224.944 30.9935 224.909 31.1905 224.909 31.4017V42.223C224.909 42.9976 225.05 43.6524 225.334 44.1874C225.616 44.7226 225.97 45.1591 226.387 45.4899C226.811 45.8279 227.265 46.0672 227.76 46.2081C228.255 46.3559 228.708 46.4263 229.125 46.4263H239.999V43.4271H229.146C228.742 43.4271 228.439 43.3214 228.234 43.1173C228.028 42.913 227.922 42.6103 227.922 42.216V39.6674H239.906V36.647H227.922V32.8873H239.999Z" fill="white"/>
    <path d="M40.8583 77.7702C41.7105 77.7702 42.4014 78.4535 42.4014 79.2964C42.4014 80.1393 41.7105 80.8228 40.8583 80.8228C40.006 80.8228 39.3151 80.1393 39.3151 79.2964C39.3151 78.4535 40.006 77.7702 40.8583 77.7702ZM39.1818 4.8612C39.9359 4.92347 40.5451 5.49492 40.6471 6.23577L42.4825 19.5719C43.0991 23.978 48.413 25.8869 51.6933 22.8928L70.0831 6.15472C70.5267 5.75097 71.2176 5.77894 71.6263 6.21722C72.0012 6.61933 72.0125 7.23494 71.6526 7.65017L55.6163 26.1483C52.664 29.5477 54.8422 34.8559 59.3427 35.2349L73.492 36.5988C74.1967 36.6668 74.7123 37.2863 74.6435 37.9825C74.5867 38.5568 74.1445 39.0205 73.5676 39.1106L58.6997 41.4321C54.3829 42.0205 52.428 47.1324 55.2359 50.4534L60.4627 56.6154C60.8837 57.1118 60.8178 57.8516 60.3153 58.2675C59.8896 58.6201 59.2733 58.6338 58.832 58.3005L52.3886 53.4343C48.9115 50.8195 43.8995 53.0419 43.532 57.3695L42.1122 74.2473C42.0536 74.9445 41.434 75.4626 40.7284 75.4048C40.1295 75.3556 39.6456 74.902 39.5643 74.3137L37.3128 58.0103C36.7093 53.6044 31.3955 51.6953 28.102 54.6894L8.53881 72.5029C8.13387 72.8715 7.50304 72.8462 7.12984 72.446C6.78745 72.0789 6.77703 71.5169 7.1056 71.1377L24.1791 51.4339C27.1313 48.0346 24.9664 42.7263 20.4657 42.3474L6.31323 40.9831C5.60854 40.9152 5.09302 40.2957 5.16177 39.5994C5.21848 39.0252 5.66074 38.5614 6.2375 38.4714L21.0956 36.1502C25.4124 35.5617 27.3806 30.4499 24.5728 27.1289L21.0147 22.9343C20.4925 22.3187 20.5742 21.4015 21.1973 20.8856C21.7255 20.4483 22.4899 20.4316 23.0371 20.8453L27.4067 24.1479C30.8838 26.7629 35.8958 24.5403 36.2633 20.2127L37.4386 6.31785C37.5128 5.44 38.2934 4.78784 39.1818 4.8612ZM1.54316 38.0397C2.39543 38.0397 3.08633 38.7231 3.08633 39.566C3.08633 40.4089 2.39543 41.0923 1.54316 41.0923C0.690899 41.0923 0 40.4089 0 39.566C0 38.7231 0.690899 38.0397 1.54316 38.0397ZM78.9389 36.4899C79.7911 36.4899 80.482 37.1733 80.482 38.0163C80.482 38.8592 79.7911 39.5425 78.9389 39.5425C78.0866 39.5425 77.3957 38.8592 77.3957 38.0163C77.3957 37.1733 78.0866 36.4899 78.9389 36.4899ZM38.959 0C39.8112 0 40.5021 0.683342 40.5021 1.52628C40.5021 2.36923 39.8112 3.05258 38.959 3.05258C38.1067 3.05258 37.4158 2.36923 37.4158 1.52628C37.4158 0.683342 38.1067 0 38.959 0Z" fill="url(#paint0_linear_25812_289)"/>
    <path d="M39.8853 53.2081C47.936 53.2081 54.4623 46.7532 54.4623 38.7906C54.4623 30.828 47.936 24.373 39.8853 24.373C31.8347 24.373 25.3083 30.828 25.3083 38.7906C25.3083 46.7532 31.8347 53.2081 39.8853 53.2081Z" fill="url(#paint1_radial_25812_289)"/>
    <defs>
        <linearGradient id="paint0_linear_25812_289" x1="10.1453" y1="15.852" x2="60.8717" y2="58.3354" gradientUnits="userSpaceOnUse">
            <stop stop-color="#FEA512"/>
            <stop offset="1" stop-color="#FB3F2E"/>
        </linearGradient>
        <radialGradient id="paint1_radial_25812_289" cx="0" cy="0" r="1" gradientUnits="userSpaceOnUse" gradientTransform="translate(36.7763 34.2403) rotate(45.965) scale(15.2243 15.118)">
            <stop stop-color="#FEA512"/>
            <stop offset="1" stop-color="#FB4B2B"/>
        </radialGradient>
    </defs>
</svg>
