<?xml version="1.0" encoding="UTF-8"?> <svg xmlns="http://www.w3.org/2000/svg" xmlns:xlink="http://www.w3.org/1999/xlink" width="225px" height="55px" viewBox="0 0 225 55"> <title>Group</title> <defs> <path d="M5.43419355,5.29179149 C4.53349253,6.19083774 3.74703483,7.16218299 3.07316476,8.1859588 L3.07316476,8.1859588 C2.53561403,9.00111614 2.06925841,9.85214703 1.67630551,10.7258059 L1.67630551,10.7258059 C-1.37735796,17.4998351 -0.125096543,25.7557178 5.43419355,31.3133579 L5.43419355,31.3133579 C12.6088954,38.4902747 24.2815833,38.4902747 31.4557332,31.3133579 L31.4557332,31.3133579 C38.6298831,24.1397525 38.6298831,12.4665007 31.4557332,5.29179149 L31.4557332,5.29179149 C27.8683823,1.70498879 23.1568108,-0.0881366041 18.4452393,-0.0881366041 L18.4452393,-0.0881366041 C13.7331159,-0.0881366041 9.02154446,1.70498879 5.43419355,5.29179149 L5.43419355,5.29179149 Z M16.7310375,22.8322998 C12.3726821,21.063458 8.07724332,19.1671272 4.05665081,16.7073057 L4.05665081,16.7073057 L4.04837231,16.7023386 C3.53952038,16.3938261 3.28509441,15.7955658 3.40430484,15.2122067 L3.40430484,15.2122067 C3.56104448,14.4423052 3.77683744,13.6823379 4.05278751,12.9378239 L4.05278751,12.9378239 C4.61738135,11.414026 5.43198595,9.96252718 6.49825702,8.64789969 L6.49825702,8.64789969 C6.83436421,8.23121466 7.1953069,7.82887904 7.58274079,7.44144475 L7.58274079,7.44144475 C13.5714092,1.45221827 23.31631,1.45221827 29.307186,7.44144475 L29.307186,7.44144475 C30.638921,8.77262925 31.6737338,10.2903562 32.4132799,11.9112886 L32.4132799,11.9112886 C32.9166129,13.0167457 31.8917343,14.2016765 30.727225,13.8561867 L30.727225,13.8561867 C29.7260782,13.5609198 28.7232756,13.2739314 27.7144022,13.0084672 L27.7144022,13.0084672 C25.3875912,12.3942017 23.0309776,11.8792783 20.6809868,11.3395194 L20.6809868,11.3395194 C20.2836187,11.2490077 20.1318462,11.0889565 20.2516085,10.6827576 L20.2516085,10.6827576 C20.4613305,9.97687659 20.6489766,9.26437278 20.8482125,8.55628417 L20.8482125,8.55628417 C21.0535194,7.81894483 20.6831944,7.43371814 19.9265393,7.61418967 L19.9265393,7.61418967 C19.4044418,7.73947113 18.8878632,7.88793242 18.3652138,8.01707718 L18.3652138,8.01707718 C16.3110415,8.52537773 14.2574211,9.02153647 12.2109754,9.54473834 L12.2109754,9.54473834 C11.48909,9.72631367 11.3753985,10.1049176 11.8577593,10.6557145 L11.8577593,10.6557145 C12.329082,11.1954734 12.8384858,11.7010144 13.3324364,12.2192492 L13.3324364,12.2192492 C14.749716,13.7016545 16.1570614,15.1906826 17.5859308,16.6609461 L17.5859308,16.6609461 C18.1179625,17.2067759 18.4656596,17.1377883 18.7145666,16.4236288 L18.7145666,16.4236288 C18.9673369,15.6945679 19.1665728,14.9406716 19.3420771,14.1862233 L19.3420771,14.1862233 C19.4590799,13.6746113 19.7063311,13.5896186 20.1583374,13.7739535 L20.1583374,13.7739535 C24.5166928,15.5422433 28.8126834,17.4391261 32.8332759,19.8989475 L32.8332759,19.8989475 C32.8365873,19.9006032 32.8393468,19.9022589 32.8421063,19.9044665 L32.8421063,19.9044665 C33.3481988,20.2118752 33.6059361,20.8068242 33.4872776,21.3874237 L33.4872776,21.3874237 C33.424361,21.6997995 33.3515102,22.0116234 33.2681733,22.3212397 L33.2681733,22.3212397 C32.9872561,23.3626763 32.595407,24.3809332 32.0920741,25.3555898 L32.0920741,25.3555898 C31.38509,26.7270631 30.456242,28.0151993 29.307186,29.1648085 L29.307186,29.1648085 C28.1763426,30.2951011 26.9091799,31.212912 25.5603359,31.9182411 L25.5603359,31.9182411 C19.7692478,34.9404494 12.4411177,34.0226385 7.58274079,29.1648085 L7.58274079,29.1648085 C6.25100576,27.8330721 5.2156411,26.315897 4.47664681,24.6949647 L4.47664681,24.6949647 C3.97221009,23.5900594 4.99708864,22.4045767 6.16270174,22.7495147 L6.16270174,22.7495147 C7.16329669,23.0447815 8.16665114,23.3317699 9.1755246,23.598338 L9.1755246,23.598338 C11.5023356,24.2120515 13.8583973,24.726423 16.2083881,25.2661819 L16.2083881,25.2661819 C16.6057562,25.3577974 16.7575287,25.5167448 16.6383183,25.9218399 L16.6383183,25.9218399 C16.4291481,26.6288247 16.2409502,27.3407766 16.0395066,28.0483134 L16.0395066,28.0483134 C15.8347517,28.7867565 16.2067324,29.1725351 16.960628,28.9920636 L16.960628,28.9920636 C17.4832774,28.8662302 18.0020635,28.7183208 18.524161,28.589176 L18.524161,28.589176 C20.5766777,28.0797717 22.6302981,27.583613 24.6783995,27.0615149 L24.6783995,27.0615149 C25.3991811,26.8793877 25.5145282,26.5018876 25.0321675,25.9499869 L25.0321675,25.9499869 C24.5602929,25.410228 24.0514409,24.9052388 23.5574903,24.3847965 L23.5574903,24.3847965 C22.1396589,22.9045988 20.7306578,21.4128111 19.303444,19.9442034 L19.303444,19.9442034 C18.7725161,19.3972698 18.4242671,19.4673612 18.1748083,20.1815207 L18.1748083,20.1815207 C17.9231418,20.9116853 17.722802,21.6655817 17.5478497,22.419478 L17.5478497,22.419478 C17.4672723,22.7704869 17.3254339,22.9217077 17.0980511,22.9217077 L17.0980511,22.9217077 C16.9942939,22.9217077 16.8723239,22.8902493 16.7310375,22.8322998 L16.7310375,22.8322998 Z" id="path-1"></path> </defs> <g id="Website-2.0" stroke="none" stroke-width="1" fill="none" fill-rule="evenodd"> <g id="Artboard" transform="translate(-121.000000, -84.000000)"> <g id="Group" transform="translate(121.000000, 84.000000)"> <path d="M187.930217,38.4976087 C188.726522,38.4976087 189.32913,37.8734783 189.32913,37.0986957 C189.32913,36.323913 188.726522,35.6997826 187.930217,35.6997826 C187.155435,35.6997826 186.531304,36.323913 186.531304,37.0986957 C186.531304,37.8734783 187.155435,38.4976087 187.930217,38.4976087 Z M202.07,38.2608696 L197.959348,32.7082609 L201.833261,27.5 L199.638043,27.5 L196.861739,31.2447826 L194.085435,27.5 L191.868696,27.5 L195.76413,32.7297826 L191.631957,38.2608696 L193.827174,38.2608696 L196.861739,34.1932609 L199.874783,38.2608696 L202.07,38.2608696 Z M212.077609,27.5 L208.978478,35.9365217 L205.319783,27.5 L203.318261,27.5 L208.01,38.2178261 L207.816304,38.6267391 C207.256739,40.0471739 206.352826,40.9295652 204.91087,40.8219565 L204.91087,42.5652174 C207.106087,42.7158696 208.784783,41.3384783 209.688696,38.9280435 L214.07913,27.5 L212.077609,27.5 Z M218.340435,36.4745652 L223.85,28.7482609 L223.85,27.5 L215.994565,27.5 L215.994565,29.2863043 L221.267391,29.2863043 L215.779348,37.0126087 L215.779348,38.2608696 L224.065217,38.2608696 L224.065217,36.4745652 L218.340435,36.4745652 Z" id="Combined-Shape" fill="#FFFFFF"></path> <g id="Group-13" transform="translate(-0.000000, 0.000000)"> <g id="Group-10" transform="translate(67.362625, 7.823724)" fill="#FFFFFF"> <path d="M108.564592,20.5331273 C108.564592,17.4797287 106.360645,15.4001465 103.23064,15.4001465 C100.100635,15.4001465 97.8966876,17.4797287 97.8966876,20.5331273 C97.8966876,23.5865259 100.100635,25.6661081 103.23064,25.6661081 C106.360645,25.6661081 108.564592,23.5865259 108.564592,20.5331273 L108.564592,20.5331273 Z M115.000518,9.91245769 L115.000518,30.9325433 C115.000518,38.3673632 109.225276,41.5090625 103.363076,41.5090625 C98.7782664,41.5090625 94.9430984,39.7826832 92.9155669,36.1538248 L98.5578717,32.8796745 C99.3954716,34.4284489 100.673861,35.6676692 103.582971,35.6676692 C106.668997,35.6676692 108.564592,34.0747444 108.564592,30.9325433 L108.564592,28.8966098 C107.109787,30.7117915 104.993298,31.7729053 102.128666,31.7729053 C95.8696558,31.7729053 91.2843461,26.6399245 91.2843461,20.5331273 C91.2843461,14.4263301 95.8696558,9.29334927 102.128666,9.29334927 C104.993298,9.29334927 107.109787,10.3549647 108.564592,12.169143 L108.564592,9.91245769 L115.000518,9.91245769 Z M87.8484373,18.4530434 L87.8484373,32.0388108 L81.2365956,32.0388108 L81.2365956,19.4268598 C81.2365956,16.6830154 79.516917,15.4001465 77.4014276,15.4001465 C74.9765858,15.4001465 73.3018858,16.8154665 73.3018858,19.9576675 L73.3018858,32.0388108 L66.6895443,32.0388108 L66.6895443,9.91245769 L73.3018858,9.91245769 L73.3018858,11.9925416 C74.4913176,10.3549647 76.6957646,9.29334927 79.6053748,9.29334927 C84.0572483,9.29334927 87.8484373,12.4791989 87.8484373,18.4530434 M55.2299682,32.0391118 L61.8418099,32.0391118 L61.8418099,9.91225701 L55.2299682,9.91225701 L55.2299682,32.0391118 Z M54.5677845,3.98256295 C54.5677845,1.81367663 56.3754211,0 58.5358891,0 C60.6958573,0 62.5029941,1.81367663 62.5029941,3.98256295 C62.5029941,6.15094756 60.6958573,7.96512589 58.5358891,7.96512589 C56.3754211,7.96512589 54.5677845,6.15094756 54.5677845,3.98256295 L54.5677845,3.98256295 Z M18.6465931,25.4010052 C18.6465931,30.4898357 14.2386986,32.6582203 9.47747288,32.6582203 C5.06907865,32.6582203 1.7191788,30.976493 0,27.3922867 L5.73026282,24.1176346 C6.303489,25.7993619 7.5373996,26.7290279 9.47747288,26.7290279 C11.0647147,26.7290279 11.8578359,26.2418689 11.8578359,25.3568549 C11.8578359,22.9225647 1.0145154,24.206437 1.0145154,16.5503636 C1.0145154,11.7269371 5.06907865,9.29314859 9.65388861,9.29314859 C13.2241832,9.29314859 16.3981671,10.8860734 18.2497826,14.0277727 L12.6074778,17.0811713 C11.9902726,15.9302518 11.1081939,15.1340402 9.65388861,15.1340402 C8.50743624,15.1340402 7.80277284,15.5765472 7.80277284,16.3727588 C7.80277284,18.8958514 18.6465931,17.2141241 18.6465931,25.4010052 M52.5874305,9.91220684 L45.5347993,32.0390617 L39.3627475,32.0390617 L35.836432,20.2238239 L32.3096166,32.0390617 L26.1385644,32.0390617 L19.0854334,9.91220684 L26.1385644,9.91220684 L29.3125482,21.7720967 L32.7509058,9.91220684 L38.9214583,9.91220684 L42.3603157,21.7720967 L45.5347993,9.91220684 L52.5874305,9.91220684 Z" id="Combined-Shape"></path> </g> <g id="Group-4"> <circle id="Oval" fill="#22BA79" cx="27.5" cy="27.5" r="27.5"></circle> <g id="Group-5" transform="translate(9.166667, 9.166667)"> <mask id="mask-2" fill="white"> <use xlink:href="#path-1"></use> </mask> <g id="Clip-4"></g> <polygon id="Fill-3" fill="#FFFFFF" mask="url(#mask-2)" points="-1.43106966 38.4759253 38.912872 38.4759253 38.912872 -2.46130965 -1.43106966 -2.46130965"></polygon> </g> </g> </g> </g> </g> </g> </svg> 