<svg width="123" height="40" viewBox="0 0 123 40" fill="none" xmlns="http://www.w3.org/2000/svg">
    <g clip-path="url(#clip0_25756_2453)">
        <path d="M-6.10352e-05 38.22V32.2434L8.68401 5.92645H1.25125V0.427002H14.6653V5.92645L5.85605 32.7205H14.6653V38.22H-6.10352e-05Z" fill="white"/>
        <path d="M22.4432 30.9124V30.4604V8.18639C22.4432 8.0692 22.4432 7.91853 22.4432 7.73437C22.4599 7.53349 22.5099 7.14844 22.5933 6.57924C22.6934 6.01004 22.8269 5.46596 22.9938 4.94699C23.1606 4.42801 23.4276 3.85881 23.7946 3.2394C24.1617 2.60324 24.5871 2.05916 25.071 1.60714C25.5714 1.15513 26.2304 0.77846 27.0479 0.47712C27.8656 0.15904 28.7832 0 29.8008 0C30.8186 0 31.7362 0.15067 32.5537 0.452009C33.3712 0.753349 34.022 1.14676 34.5058 1.63226C35.0063 2.101 35.4401 2.62834 35.8072 3.21429C36.1909 3.80023 36.4662 4.38616 36.6331 4.9721C36.7998 5.55803 36.9249 6.09374 37.0084 6.57924C37.1084 7.04799 37.1586 7.43303 37.1586 7.73437L37.1836 8.18639V30.4604C37.1836 30.5776 37.1752 30.7366 37.1586 30.9374C37.1586 31.1217 37.1084 31.4983 37.0084 32.0676C36.9249 32.6367 36.7998 33.1809 36.6331 33.6997C36.4662 34.202 36.1993 34.7711 35.8322 35.4074C35.4651 36.0269 35.0314 36.5626 34.5308 37.0146C34.0302 37.4666 33.3712 37.8516 32.5537 38.1697C31.7362 38.471 30.8186 38.6217 29.8008 38.6217C28.7832 38.6217 27.8656 38.471 27.0479 38.1697C26.2304 37.8683 25.5714 37.4833 25.071 37.0146C24.5871 36.529 24.1617 35.9933 23.7946 35.4074C23.4276 34.8214 23.1606 34.2439 22.9938 33.6747C22.8269 33.0887 22.6934 32.5614 22.5933 32.0926C22.5099 31.6071 22.4599 31.2137 22.4432 30.9124ZM27.9739 30.4604C27.9739 30.5273 27.9739 30.6279 27.9739 30.7617C27.9739 30.8789 27.999 31.0966 28.0491 31.4146C28.1157 31.7327 28.1992 32.0173 28.2992 32.2684C28.4161 32.5029 28.5996 32.7204 28.8499 32.9213C29.1169 33.1221 29.4338 33.2227 29.8008 33.2227C30.1679 33.2227 30.4765 33.1306 30.7268 32.9464C30.9938 32.7456 31.1857 32.5111 31.3024 32.2433C31.4193 31.9754 31.5026 31.7076 31.5527 31.4397C31.6195 31.1719 31.6528 30.9374 31.6528 30.7366V30.4604V8.18639C31.6528 8.10269 31.6528 8.00223 31.6528 7.88504C31.6528 7.76786 31.6195 7.55023 31.5527 7.23214C31.5026 6.89732 31.4193 6.61273 31.3024 6.37834C31.1857 6.12723 30.9938 5.90123 30.7268 5.70033C30.4765 5.49944 30.1679 5.399 29.8008 5.399C29.217 5.399 28.7748 5.63337 28.4745 6.10212C28.1742 6.55413 28.0156 7.01451 27.999 7.48326L27.9739 8.18639V30.4604Z" fill="white"/>
        <path d="M46.0385 38.22V0.427002H51.5693V13.0079V14.6652H51.7694L52.0448 13.0079L56.6495 0.427002H62.0301L56.9499 12.8572L62.706 38.22H57.3003L53.4712 21.7718L53.3212 20.9934H53.171L52.8456 21.7718L51.5693 24.8605V38.22H46.0385Z" fill="white"/>
        <path d="M69.4321 0.427002H74.8629L77.6408 12.5057L77.7909 13.8868H77.8911L78.0412 12.5057L80.8191 0.427002H86.2497L80.6189 22.1234V38.22H75.0881V22.1234L69.4321 0.427002Z" fill="white"/>
        <path d="M93.2778 30.9124V30.4604V8.18639C93.2778 8.0692 93.2778 7.91853 93.2778 7.73437C93.2945 7.53349 93.3446 7.14844 93.428 6.57924C93.5281 6.01004 93.6615 5.46596 93.8284 4.94699C93.9952 4.42801 94.2622 3.85881 94.6292 3.2394C94.9963 2.60324 95.4217 2.05916 95.9056 1.60714C96.4062 1.15513 97.0651 0.77846 97.8827 0.47712C98.7002 0.15904 99.6178 0 100.636 0C101.653 0 102.571 0.15067 103.388 0.452009C104.206 0.753349 104.857 1.14676 105.34 1.63226C105.841 2.101 106.275 2.62834 106.642 3.21429C107.025 3.80023 107.301 4.38616 107.468 4.9721C107.635 5.55803 107.76 6.09374 107.843 6.57924C107.943 7.04799 107.993 7.43303 107.993 7.73437L108.018 8.18639V30.4604C108.018 30.5776 108.01 30.7366 107.993 30.9374C107.993 31.1217 107.943 31.4983 107.843 32.0676C107.76 32.6367 107.635 33.1809 107.468 33.6997C107.301 34.202 107.034 34.7711 106.667 35.4074C106.3 36.0269 105.866 36.5626 105.365 37.0146C104.865 37.4666 104.206 37.8516 103.388 38.1697C102.571 38.471 101.653 38.6217 100.636 38.6217C99.6178 38.6217 98.7002 38.471 97.8827 38.1697C97.0651 37.8683 96.4062 37.4833 95.9056 37.0146C95.4217 36.529 94.9963 35.9933 94.6292 35.4074C94.2622 34.8214 93.9952 34.2439 93.8284 33.6747C93.6615 33.0887 93.5281 32.5614 93.428 32.0926C93.3446 31.6071 93.2945 31.2137 93.2778 30.9124ZM98.8087 30.4604C98.8087 30.5273 98.8087 30.6279 98.8087 30.7617C98.8087 30.8789 98.8336 31.0966 98.8837 31.4146C98.9505 31.7327 99.0339 32.0173 99.134 32.2684C99.2507 32.5029 99.4342 32.7204 99.6845 32.9213C99.9515 33.1221 100.268 33.2227 100.636 33.2227C101.003 33.2227 101.311 33.1306 101.561 32.9464C101.828 32.7456 102.02 32.5111 102.137 32.2433C102.254 31.9754 102.337 31.7076 102.387 31.4397C102.454 31.1719 102.487 30.9374 102.487 30.7366V30.4604V8.18639C102.487 8.10269 102.487 8.00223 102.487 7.88504C102.487 7.76786 102.454 7.55023 102.387 7.23214C102.337 6.89731 102.254 6.61273 102.137 6.37834C102.02 6.12723 101.828 5.90123 101.561 5.70033C101.311 5.49944 101.003 5.399 100.636 5.399C100.052 5.399 99.6095 5.63337 99.3091 6.10212C99.0088 6.55413 98.8504 7.01451 98.8336 7.48326L98.8087 8.18639V30.4604Z" fill="white"/>
        <path d="M116.146 38.2198V32.5195H121.527V38.2198H116.146Z" fill="#3FAFED"/>
    </g>
    <defs>
        <clipPath id="clip0_25756_2453">
            <rect width="122.439" height="40" fill="white"/>
        </clipPath>
    </defs>
</svg>
